<?xml version="1.0" encoding="utf-8"?>
<!-- Generator: Adobe Illustrator 27.5.0, SVG Export Plug-In . SVG Version: 6.00 Build 0)  -->
<svg version="1.1" xmlns="http://www.w3.org/2000/svg" xmlns:xlink="http://www.w3.org/1999/xlink" x="0px" y="0px"
	 viewBox="0 0 900 600" style="enable-background:new 0 0 900 600;" xml:space="preserve">
<g id="Layer_2">
	<rect style="fill:#FFFFFF;" width="900" height="600"/>
	<rect style="opacity:0;fill:#FFFFFF;" width="900" height="600"/>
</g>
<g id="Layer_1">
	<g>
		<g>
			<path style="fill:#FFE6CF;" d="M735.75,192.067c-9.92-11.496-15.709-26.484-16.093-41.664c-0.194-7.67,1.181-15.867,6.36-21.527
				c5.179-5.66,15.032-7.435,20.512-2.064c6.861,6.725,2.923,18.391,5.569,27.626c2.883,10.062,13.046,15.846,21.88,21.46
				c12.338,7.84,28.284,30.683,5.515,38.162C765.262,218.733,744.384,202.074,735.75,192.067z"/>
		</g>
		<g>
			<g>
				<g>
					<polygon style="fill:#FFB486;" points="701.986,528.24 704.144,502.991 685.633,502.991 686.754,528.24 					"/>
				</g>
			</g>
			<g>
				<path style="fill:#FCA377;" d="M704.087,503.391l-1.23,14.212c-6.521,0.416-12.818-0.387-16.636-1.044l-0.664-14.676
					L704.087,503.391z"/>
			</g>
		</g>
		<g>
			<g>
				<path style="fill:#47393D;" d="M706.865,541.748H658.71c-0.058-0.57-0.174-2.33,0.193-4.176
					c0.019-0.039,47.285,0.271,47.285,0.271L706.865,541.748z"/>
			</g>
			<g>
				<path style="fill:#F75C5C;" d="M706.188,537.842l-47.265-0.309c0.454-4.892,6.593-7.193,12.326-8.653
					c0.387-0.097,0.764-0.184,1.141-0.28c0.822-0.193,1.624-0.367,2.388-0.541c0.396-0.087,0.783-0.174,1.151-0.251
					c1.982-0.445,3.625-0.822,4.573-1.266c0.851-0.406,1.885-0.996,2.784-1.537c0.309-0.184,0.59-0.367,0.851-0.532
					c0.851-0.532,1.46-0.938,1.46-0.938c3.094,1.015,7.753,3.925,17.982-0.706l0.309,1.779l0.174,1.005L706.188,537.842z"/>
			</g>
			<g>
				<g>
					<g>
						<path style="fill:#47393D;" d="M672.39,528.6c-0.715,1.653-0.793,3.432-0.793,3.451l-0.967-0.039
							c0.01-0.097,0.068-1.547,0.619-3.132C671.636,528.783,672.013,528.696,672.39,528.6z"/>
					</g>
				</g>
				<g>
					<g>
						<path style="fill:#47393D;" d="M675.929,527.807c-0.793,1.711-0.87,3.606-0.87,3.625l-0.967-0.029
							c0-0.106,0.068-1.682,0.686-3.345C675.174,527.971,675.561,527.884,675.929,527.807z"/>
					</g>
				</g>
			</g>
			<g>
				<g>
					<path style="fill:#47393D;" d="M704.061,525.612c-4.215,2.098-7.821,2.823-10.808,2.823c-5.52,0-8.894-2.494-9.967-3.432
						c0.309-0.184,0.59-0.367,0.851-0.532c1.798,1.537,8.382,5.926,19.751,0.135L704.061,525.612z"/>
				</g>
			</g>
		</g>
		<g>
			<path style="fill:#FFE6CF;" d="M726.829,541.68H126.445c0,0-74.338-83.46-58.069-145.02c7.394,2.81,19.415,3.17,25.724,9.53
				c3.623,4.55,7.164,9.17,11.468,12.92c-7.302-16.33-14.604-34.17-14.43-51.92c11.864-6.47,26.716-9.76,38.001-18.52
				c3.412-2.64,6.493-5.79,9.068-9.67c22.035-33.19-37.145-109.28,19.754-206.18c60.873-103.67,233.374-8.63,325.524-29.62
				c35.977-8.2,82.991-50.94,132.321-47.39c92.628,6.66,65.241,77.32,89.207,142.17c8.672,23.47,53.322,38.42,74.346,62.95
				C850.405,343.86,726.829,541.68,726.829,541.68z"/>
		</g>
		<g>
			<path style="fill:#7178D5;" d="M200.62,541.68h-73.53c0,0-69.2-69.33-80.71-105.41c-2.85-8.88-4.94-18.35-3.14-27.51
				c1.8-9.15,8.18-18.71,17.44-19.84c2.67-0.32,5.56,0.15,8.55,1.19c8.04,2.81,16.78,9.72,23.64,16.08
				c7.05,6.54,12.13,12.51,12.47,12.92c-7.94-16.33-15.88-34.17-15.69-51.92c0.04-4.28,0.56-8.57,1.67-12.82
				c2.18-8.34,7.36-17.07,15.76-18.97c8.86-2,16.94,4.01,23.89,13.27c14.38,19.1,24.03,51.99,26.18,56.69
				c-1.77-10.3-3.52-21.09-0.3-31.03c3.22-9.95,13.15-18.56,23.4-16.55c13.03,2.56,17.57,18.58,19.35,31.73
				C206.99,444.13,200.62,541.68,200.62,541.68z"/>
		</g>
		<g>
			<path style="fill:#47393D;" d="M162.465,422.239c-0.142-0.294-14.106-29.676-3.41-53.36l0.911,0.412
				c-10.501,23.253,3.259,52.223,3.399,52.513L162.465,422.239z"/>
		</g>
		<g>
			<path style="fill:#47393D;" d="M69.929,477.311c-0.348-0.435-34.672-43.91-25.579-72.155l0.952,0.307
				c-8.929,27.735,25.064,70.794,25.408,71.226L69.929,477.311z"/>
		</g>
		<g>
			<path style="fill:#47393D;" d="M85.577,487.877c-0.198-0.233-19.874-23.442-24.614-41.388l0.967-0.256
				c4.682,17.725,24.211,40.765,24.408,40.995L85.577,487.877z"/>
		</g>
		<g>
			<path style="fill:#47393D;" d="M125.373,448.48c-13.082-23.146-30.873-39.544-31.051-39.707l0.675-0.738
				c0.179,0.164,18.083,16.664,31.247,39.953L125.373,448.48z"/>
		</g>
		<g>
			<path style="fill:#47393D;" d="M156.571,403.89c-14.775-41.975-30.638-60.166-30.796-60.345l0.748-0.664
				c0.16,0.181,16.152,18.519,30.991,60.677L156.571,403.89z"/>
		</g>
		<g>
			<path style="fill:#47393D;" d="M135.317,366.241c-6.107-12.514-13.378-20.418-21.028-22.857
				c-6.278-2.004-10.666,0.329-10.71,0.353l-0.479-0.877c0.193-0.105,4.812-2.559,11.492-0.428
				c8.029,2.561,15.305,10.424,21.623,23.37L135.317,366.241z"/>
		</g>
		<g>
			<g>
				<g>
					<g>
						<g>
							<rect x="311.03" y="89.394" style="fill:#FFFFFF;" width="248.098" height="420.724"/>
						</g>
					</g>
					<g>
						<g>
							<path style="fill:#47393D;" d="M559.128,70.572v18.822H311.029V70.572c0-6.392,5.184-11.573,11.576-11.573h224.95
								C553.948,59,559.128,64.18,559.128,70.572z"/>
						</g>
					</g>
					<g>
						<g>
							<path style="fill:#47393D;" d="M311.029,510.118h248.099v18.494c0,6.392-5.181,11.576-11.573,11.576h-224.95
								c-6.392,0-11.576-5.184-11.576-11.576V510.118z"/>
						</g>
					</g>
					<g>
						<g>
							<rect x="311.029" y="89.395" style="fill:#47393D;" width="1.275" height="420.873"/>
						</g>
					</g>
				</g>
				<g>
					<g>
						<g>
							<path style="fill:#E8DFDE;" d="M466.336,74.366h-62.513c-0.616,0-1.116-0.499-1.116-1.116c0-0.616,0.5-1.116,1.116-1.116
								h62.513c0.616,0,1.116,0.5,1.116,1.116C467.452,73.867,466.953,74.366,466.336,74.366z"/>
						</g>
					</g>
				</g>
			</g>
			<g>
				<g>
					<g>
						<rect x="339.184" y="335.544" style="fill:#B3C0C6;" width="99.968" height="98.121"/>
					</g>
					<g>
						<rect x="448.778" y="335.544" style="fill:#D5DCE0;" width="82.196" height="15.263"/>
					</g>
					<g>
						<rect x="448.778" y="358.762" style="fill:#D5DCE0;" width="82.196" height="15.263"/>
					</g>
					<g>
						<rect x="448.778" y="381.535" style="fill:#D5DCE0;" width="82.196" height="15.263"/>
					</g>
				</g>
				<g>
					<rect x="339.184" y="447.798" style="fill:#D5DCE0;" width="191.79" height="20.488"/>
				</g>
				<g>
					<rect x="339.184" y="477.84" style="fill:#B3C0C6;" width="191.79" height="8.859"/>
				</g>
				<g>
					<rect x="339.184" y="282.082" style="fill:#C5D1D8;" width="191.79" height="20.488"/>
				</g>
				<g>
					<rect x="339.184" y="312.124" style="fill:#B3C0C6;" width="191.79" height="8.859"/>
				</g>
				<g>
					<rect x="339.184" y="165.951" style="fill:#B3C0C6;" width="99.968" height="98.121"/>
				</g>
				<g>
					<rect x="448.778" y="165.951" style="fill:#D5DCE0;" width="82.196" height="15.263"/>
				</g>
				<g>
					<rect x="448.778" y="189.169" style="fill:#D5DCE0;" width="82.196" height="15.263"/>
				</g>
				<g>
					<rect x="448.778" y="211.943" style="fill:#D5DCE0;" width="82.196" height="15.263"/>
				</g>
				<g>
					<rect x="339.184" y="112.489" style="fill:#D5DCE0;" width="191.79" height="20.488"/>
				</g>
				<g>
					<rect x="339.184" y="142.531" style="fill:#B3C0C6;" width="191.79" height="8.859"/>
				</g>
			</g>
		</g>
		<g>
			<g>
				<g>
					<polygon style="fill:#FFB486;" points="259.18,528.24 256.054,502.991 274.566,502.991 275.379,528.24 					"/>
				</g>
			</g>
			<g>
				<path style="fill:#FCA377;" d="M275.027,517.327c-6.993,1.829-17.383-1.498-17.383-1.498l-0.735-5.994l17.924,1.508
					L275.027,517.327z"/>
			</g>
		</g>
		<g>
			<g>
				<g>
					<polygon style="fill:#FFB486;" points="170.895,528.24 172.604,502.991 191.115,502.991 187.094,528.24 					"/>
				</g>
			</g>
			<g>
				<path style="fill:#FCA377;" d="M190.251,508.385l-1.266,7.966c-8.546,0.503-14.618-2.659-16.996-4.176l0.522-7.753
					L190.251,508.385z"/>
			</g>
		</g>
		<g>
			<g>
				<g>
					<polygon style="fill:#FFB486;" points="593.564,528.24 601.523,502.991 583.011,502.991 577.365,528.24 					"/>
				</g>
			</g>
			<g>
				<path style="fill:#FCA377;" d="M601.562,502.776l-4.389,13.883c-8.333,1.489-14.753,0.077-17.034-0.561l3.152-14.105h6.613
					L601.562,502.776z"/>
			</g>
		</g>
		<g>
			<path style="fill:#5555C9;" d="M298.558,512.41c0,0-12.363-155.259-45.747-230.738l-31.034,1.556
				c0,0,2.649,109.316,25.932,229.182C247.709,512.41,276.836,519.321,298.558,512.41z"/>
		</g>
		<g>
			<path style="fill:#5555C9;" d="M210.617,512.41c0,0-30.541,4.937-47.963-6.911c0,0,9.277-168.341,37.686-223.538h33.403
				C233.743,281.96,232.652,372.701,210.617,512.41z"/>
		</g>
		<g>
			<g>
				<path style="fill:#47393D;" d="M201.084,202.045c0.822-2.939,2.369-6.69,2.369-6.69c-0.541,2.813-0.551,5.926-0.493,7.608
					c7.251,3.326,22.4,7.657,45.921,1.905c-0.3-2.417-0.435-4.708-0.435-4.708c0.416,1.537,1.015,3.084,1.595,4.418
					c0.841-0.213,1.682-0.435,2.543-0.677c-0.706-2.987-1.005-8.179-1.005-8.179c0.822,3.123,2.446,6.303,3.132,7.57
					c1.431-0.435,2.891-0.899,4.379-1.402c0,0-4.689-7.154-7.763-25.774c-2.533-15.304-10.383-22.535-22.313-22.216
					c-24.537,0.657-31.082,46.192-31.082,46.192S198.976,200.923,201.084,202.045z"/>
			</g>
		</g>
		<g>
			<g>
				<path style="fill:#F75C5C;" d="M285.905,256.047c0,0-9.832-44.264-48.929-46.553c-60.177-3.523-78.673,35.62-78.673,35.62
					L285.905,256.047z"/>
			</g>
		</g>
		<g>
			<path style="fill:#FFB486;" d="M223.606,165.123c6.643-3.796,18.307-3.959,20.974,5.03c2.461,8.295,2.069,33.312-9.035,32.837
				c-11.607-0.496-15.269-9.319-16.304-14.71C218.869,186.343,216.963,168.919,223.606,165.123z"/>
		</g>
		<g>
			<path style="fill:#FFB486;" d="M219.521,187.839c0,0-5.186,1.596-6.154-3.066c-0.873-4.206,4.121-5.846,5.728-4.003
				L219.521,187.839z"/>
		</g>
		<g>
			<g>
				<g>
					<path style="fill:#FFB486;" d="M294.114,278.37c12.346-10.161,30.814-38.403,30.814-38.403c1.296-0.864,6.79-4.65,8.714-8.517
						c0.851-1.721,0.416-3.152-1.025-3.094c0.193-1.615-0.541-2.243-2.049-1.905c-0.097-1.527-0.899-1.818-1.943-1.547
						c-0.464-3.596-7.792,3.973-8.266,5.114c-0.319,0.764-1.298,3.648-1.54,4.518c-0.319,1.15-35.4,26.74-35.4,26.74L294.114,278.37
						z"/>
				</g>
			</g>
		</g>
		<g>
			<g>
				<path style="fill:#F75C5C;" d="M330.076,238.513c1.783-0.893,2.505-3.062,1.613-4.845l-13.132-26.235
					c-0.893-1.783-3.062-2.505-4.845-1.613c-1.783,0.893-2.505,3.062-1.613,4.845l13.132,26.235
					C326.124,238.684,328.293,239.406,330.076,238.513z"/>
			</g>
			<g>
				
					<ellipse transform="matrix(0.3552 -0.9348 0.9348 0.3552 21.2531 405.3181)" style="fill:#F75C5C;" cx="304.419" cy="187.254" rx="31.595" ry="31.595"/>
			</g>
			<g>
				<g>
					<path style="fill:#FFFFFF;" d="M280.576,199.187c-3.187-6.368-3.704-13.597-1.455-20.354
						c2.249-6.757,6.995-12.234,13.364-15.422c6.367-3.188,13.595-3.705,20.354-1.455c6.757,2.249,12.234,6.995,15.421,13.364
						c3.187,6.368,3.705,13.597,1.456,20.354c-2.25,6.757-6.995,12.234-13.364,15.422c-3.82,1.912-7.883,2.817-11.89,2.817
						C294.68,213.913,285.245,208.514,280.576,199.187z M292.918,164.277c-6.138,3.072-10.712,8.35-12.879,14.862
						c-2.167,6.512-1.669,13.479,1.403,19.616c6.342,12.67,21.808,17.819,34.479,11.476c6.138-3.072,10.711-8.35,12.879-14.862
						c2.168-6.512,1.669-13.479-1.403-19.616c-3.072-6.138-8.35-10.711-14.862-12.879c-2.666-0.887-5.409-1.328-8.139-1.328
						C300.456,161.546,296.542,162.462,292.918,164.277z"/>
				</g>
			</g>
			<g>
				<g>
					<polygon style="fill:#FFFFFF;" points="305.852,196.618 311.056,194.013 301.648,167.705 290.43,173.32 					"/>
				</g>
				<g>
					
						<rect x="308.651" y="198.755" transform="matrix(-0.8942 0.4476 -0.4476 -0.8942 680.3693 242.2752)" style="fill:#FFFFFF;" width="5.819" height="5.533"/>
				</g>
			</g>
		</g>
		<g>
			<g>
				<g>
					<path style="fill:#FFB486;" d="M333.651,229.088c0.533,0.455,0.545,1.276,0.019,1.74c-0.945,0.833-2.228,1.576-2.812,1.366
						c-1.029-0.371,0.22-1.863,1.163-2.973C332.436,228.733,333.164,228.673,333.651,229.088L333.651,229.088z"/>
				</g>
				<g>
					<path style="fill:#FFB486;" d="M331.848,228.306c0.291,0.459,0.234,1.058-0.146,1.448c-0.946,0.972-2.622,2.239-3.509,1.675
						c-0.564-0.359,0.628-2.003,1.667-3.311C330.363,227.485,331.414,227.622,331.848,228.306L331.848,228.306z"/>
				</g>
				<g>
					<path style="fill:#FFB486;" d="M329.468,226.339c0.52,0.368,0.651,1.086,0.287,1.609c-0.782,1.125-2.114,2.474-3.59,2.377
						c-1.265-0.083,0.488-2.41,1.573-3.837c0.38-0.5,1.084-0.606,1.597-0.243L329.468,226.339z"/>
				</g>
				<g>
					<path style="fill:#FFB486;" d="M328.197,224.281c0.625,0.502,0.677,1.433,0.111,2.001c-1.034,1.038-2.505,2.084-3.376,1.936
						c-0.933-0.159,0.322-2.139,1.292-3.621C326.661,223.928,327.575,223.781,328.197,224.281L328.197,224.281z"/>
				</g>
			</g>
			<g>
				<path style="fill:#FFB486;" d="M319.576,232.716c0.388-3.821,2.679-7.999,3.613-7.39s-0.601,3.984-0.077,5.163
					c0.69,1.552,1.266,2.994,0.026,6.171L319.576,232.716z"/>
			</g>
		</g>
		<g>
			<path style="fill:#47393D;" d="M168.724,508.224l-0.998-0.066c0.111-1.683,11.419-168.967,40.136-223.322l0.884,0.467
				C180.128,339.47,168.835,506.542,168.724,508.224z"/>
		</g>
		<g>
			<g>
				<path style="fill:#F75C5C;" d="M193.076,255.003l-10.532,60.228c27.482,8.256,58.497,0.838,83.86-15.99L255.9,239.843
					l-19.546-29.764c0,0-9.531,10.875-20.035-0.247l-27.358,11.475L193.076,255.003z"/>
			</g>
		</g>
		<g>
			<path style="fill:#F75C5C;" d="M182.072,307.455c0,0-18.286-26.781,10.017-45.87l16.212-45.596l0.002-0.305
				c-18.986-0.097-39.392,11.52-50.441,27.8c-18.477,27.223-16.62,59.775,14.316,76.56L182.072,307.455z"/>
		</g>
		<g>
			<path style="fill:#F75C5C;" d="M323.734,247.433l-9.215-11.848L287.581,254.3c0,0-13.888-28.232-25.316-35.533l-7.315,49.401
				c0,0,13.152,20.201,32.582,17.772C305.962,283.635,323.734,247.433,323.734,247.433z"/>
		</g>
		<g>
			<path style="fill:#47393D;" d="M228.159,377.688l-0.996-0.094c1.612-17.212,2.954-34.045,3.988-50.03l0.998,0.064
				C231.114,343.623,229.771,360.466,228.159,377.688z"/>
		</g>
		<g>
			<path style="fill:#47393D;" d="M255.119,512.759c-0.208-0.993-20.807-99.825-26.666-149.625l0.993-0.117
				c5.854,49.756,26.444,148.545,26.651,149.537L255.119,512.759z"/>
		</g>
		<g>
			<g>
				
					<rect x="260.669" y="239.382" transform="matrix(0.9848 -0.174 0.174 0.9848 -42.9068 49.5388)" style="fill:#47393D;" width="0.966" height="60.319"/>
			</g>
		</g>
		<g>
			<path style="fill:#47393D;" d="M215.286,179.838c0,0,1.856-1.073,3.703,0.889c0,0,0.491-3.924,1.816-6.399l0.833,4.378
				c1.344,0.213,5.624,0.913,10.315,1.005c1.322,0.026,5.04,0,5.04,0l0.848-7.318l1.585,7.173c1.092-0.087,1.942-0.203,2.812-0.319
				l0.62-4.302l1.199,4.051c1.17-0.193,1.982-0.377,2.378-0.464c0.242-3.074,0.338-11.369-5.143-16.174
				c-6.294-5.51-19.606-2.485-22.69,4.118C215.518,173.08,215.286,179.838,215.286,179.838z"/>
		</g>
		<g>
			<path style="fill:#FFB486;" d="M227.716,214.892c5.513,0,8.786-4.813,8.786-4.813l-1.381-15.941l-15.16-9.009l-3.826,24.704
				C216.135,209.832,220.88,214.892,227.716,214.892z"/>
		</g>
		<g>
			<g>
				<g>
					<path style="fill:#47393D;" d="M235.031,203.885l0.041-0.966c-6.899-0.295-11.316-5.57-13.807-9.943l-0.84,0.479
						C223.037,198.039,227.689,203.571,235.031,203.885z"/>
				</g>
			</g>
		</g>
		<g>
			<path style="fill:#47393D;" d="M178.939,320.482c-13.332-7.232-22.031-17.847-25.157-30.693
				c-3.566-14.655,0.221-31.2,10.665-46.586l0.827,0.562c-10.283,15.15-14.019,31.412-10.521,45.788
				c3.058,12.565,11.585,22.957,24.662,30.051L178.939,320.482z"/>
		</g>
		<g>
			<path style="fill:#FFFFFF;" d="M691.479,211.502c0,0,49.96,9.159,45.462,58.574c-1.87,20.542-12.572,28.439-12.572,28.439
				l-10.527-11.063l-19.984,6.721L691.479,211.502z"/>
		</g>
		<g>
			<polygon style="fill:#FFB587;" points="663.733,216.273 667.239,189.403 683.124,189.403 686.873,216.273 			"/>
		</g>
		<g>
			<path style="fill:#FFB587;" d="M671.852,199.78c10.042-2.823,21.898-16.683,17.469-32.697c-3.514-12.704-25.214-9.2-31.007,1.704
				C649.331,185.698,648.774,206.267,671.852,199.78z"/>
		</g>
		<g>
			<path style="fill:#5555C9;" d="M752.648,287.888l-4.677,15.56c-1.373,4.566-6.302,7.073-10.873,5.528l-227.721-76.93
				c-4.356-1.471-6.773-6.088-5.465-10.439c1.308-4.351,5.87-6.87,10.315-5.696l232.398,61.37
				C751.29,278.513,754.021,283.322,752.648,287.888z"/>
		</g>
		<g>
			
				<ellipse transform="matrix(0.7071 -0.7071 0.7071 0.7071 -8.4536 385.3466)" style="fill:#FFFFFF;" cx="460.928" cy="202.878" rx="90.894" ry="90.894"/>
		</g>
		<g>
			<g>
				<path style="fill:#FFBA8C;" d="M580.212,243.158c-0.966-0.692-4.142-2.808-4.651-3.881c-0.472-0.995-2.332-6.702-3.506-6.198
					c-1.231,0.528,0.867,4.189-0.174,4.44c-0.642,0.155-4.873-6.952-6.002-5.801c-0.741,0.756,2.407,4.711,1.877,4.957
					c-0.492,0.229-3.354-5.453-4.508-4.389c-1.209,1.115,3.969,5.904,3.383,6.386c-0.29,0.239-4.785-6.078-5.704-5.184
					c-1.229,1.195,3.856,5.588,3.342,6.181c-0.252,0.291-1.772-1.582-2.817-2.581c-0.58-0.554-1.12-0.176-0.95,0.342
					c1.764,5.36,10.277,10.318,10.832,11.101c0.824,1.163,1.658,2.284,2.499,3.363L580.212,243.158z"/>
			</g>
		</g>
		<g>
			<path style="fill:#FFFFFF;" d="M460.846,283.716c-3.663,0-7.344-0.25-11.024-0.761c-3.761-0.517-7.498-1.303-11.108-2.334
				c-38.491-10.94-63.365-49.133-57.858-88.84c0.843-6.109,2.39-12.138,4.598-17.919c2.546-6.636,5.975-12.926,10.193-18.697
				c2.977-4.071,6.375-7.896,10.103-11.371c5.172-4.829,10.948-8.956,17.166-12.266c15.105-8.075,32.096-11.096,49.134-8.733
				c9.507,1.32,18.573,4.258,26.947,8.734c6.218,3.318,11.98,7.445,17.126,12.267c3.716,3.475,7.102,7.3,10.063,11.371
				c4.207,5.74,7.643,12.03,10.212,18.694c2.426,6.283,4.054,12.874,4.84,19.591c0.394,3.364,0.573,6.801,0.533,10.214
				c-0.03,3.42-0.288,6.894-0.765,10.323c-0.438,3.131-1.055,6.252-1.831,9.276c-0.867,3.316-1.934,6.56-3.17,9.641
				c-2.806,7.035-6.587,13.626-11.24,19.592C509.342,272.306,485.567,283.716,460.846,283.716z M460.786,123.014
				c-13.025,0-25.778,3.183-37.4,9.396c-6.142,3.27-11.846,7.346-16.954,12.115c-3.682,3.431-7.039,7.21-9.978,11.229
				c-4.167,5.7-7.553,11.912-10.067,18.464c-2.181,5.71-3.708,11.665-4.542,17.699c-5.439,39.216,19.126,76.937,57.142,87.741
				c3.566,1.019,7.257,1.794,10.972,2.306c28.163,3.908,56.528-7.62,74.017-30.082c4.594-5.891,8.329-12.401,11.1-19.348
				c1.222-3.044,2.275-6.247,3.13-9.521c0.767-2.986,1.375-6.069,1.808-9.163c0.472-3.386,0.726-6.816,0.755-10.195
				c0.04-3.373-0.138-6.766-0.526-10.088c-0.776-6.634-2.385-13.143-4.78-19.348c-2.538-6.582-5.932-12.794-10.087-18.465
				c-2.924-4.021-6.268-7.798-9.938-11.23c-5.083-4.762-10.774-8.837-16.915-12.115c-8.269-4.419-17.223-7.322-26.613-8.625
				C468.194,123.27,464.479,123.014,460.786,123.014z"/>
		</g>
		<g>
			<path style="fill:#5555C9;" d="M474.162,107.535c-52.673-7.302-101.273,29.462-108.573,82.124
				c-7.308,52.649,29.457,101.249,82.127,108.562c52.651,7.297,101.251-29.467,108.548-82.119
				C563.575,163.443,526.811,114.843,474.162,107.535z M540.347,213.895c-6.08,43.859-46.563,74.489-90.433,68.406
				c-43.87-6.083-74.486-46.574-68.406-90.433c6.083-43.87,46.566-74.5,90.447-68.414
				C515.814,129.534,546.43,170.025,540.347,213.895z"/>
		</g>
		<g>
			<path style="fill:#FFFFFF;" d="M461.105,287.897c-3.933,0-7.891-0.272-11.854-0.821c-46.423-6.437-78.955-49.444-72.518-95.87
				c3.119-22.494,14.809-42.426,32.915-56.123c18.109-13.699,40.474-19.523,62.969-16.404c22.487,3.117,42.413,14.807,56.106,32.916
				c13.693,18.108,19.517,40.469,16.398,62.963c-3.118,22.488-14.806,42.416-32.912,56.113
				C497.293,281.955,479.49,287.897,461.105,287.897z M460.759,118.857c-18.173,0-35.765,5.871-50.507,17.023
				c-17.894,13.537-29.446,33.233-32.529,55.463c-6.361,45.88,25.788,88.381,71.666,94.742c22.224,3.082,44.323-2.675,62.217-16.212
				c17.893-13.536,29.444-33.229,32.525-55.453c3.082-22.229-2.673-44.327-16.205-62.222
				c-13.532-17.896-33.224-29.449-55.446-32.529C468.563,119.126,464.646,118.857,460.759,118.857z"/>
		</g>
		<g>
			<path style="fill:#47393D;" d="M461.128,298.861c-4.44,0-8.908-0.307-13.383-0.927c-52.409-7.267-89.136-55.82-81.87-108.233
				c3.521-25.395,16.718-47.896,37.16-63.36c20.444-15.464,45.691-22.042,71.089-18.519c25.387,3.52,47.882,16.717,63.342,37.161
				c15.459,20.444,22.033,45.688,18.512,71.082c-3.52,25.388-16.715,47.886-37.156,63.349
				C501.983,292.152,481.884,298.861,461.128,298.861z M460.737,107.893c-20.544,0-40.432,6.637-57.097,19.245
				c-20.229,15.302-33.288,37.57-36.773,62.7c-7.19,51.866,29.154,99.914,81.017,107.105c25.128,3.485,50.107-3.024,70.336-18.328
				c20.228-15.302,33.285-37.565,36.769-62.689c3.484-25.129-3.021-50.11-18.319-70.341c-15.298-20.231-37.559-33.291-62.682-36.774
				C469.559,108.197,465.131,107.893,460.737,107.893z"/>
		</g>
		<g style="opacity:0.44;">
			<g>
				<path style="fill:#B3C0C6;" d="M438.85,174.04v106.1c-37.93-10.78-63.07-48.13-57.5-88.29c0.86-6.23,2.42-12.18,4.57-17.81
					H438.85z"/>
			</g>
			<g>
				<path style="fill:#D5DCE0;" d="M540.74,193.51h-89.83v-19.47h85.02C538.32,180.23,539.95,186.76,540.74,193.51z"/>
			</g>
			<g>
				<path style="fill:#D5DCE0;" d="M541.27,203.66c-0.03,3.39-0.28,6.81-0.76,10.26c-0.44,3.14-1.05,6.22-1.82,9.22h-87.78v-19.48
					H541.27z"/>
			</g>
			<g>
				<path style="fill:#D5DCE0;" d="M535.54,232.72c-2.82,7.07-6.6,13.61-11.17,19.47h-73.46v-19.47H535.54z"/>
			</g>
			<g>
				<path style="fill:#D5DCE0;" d="M498.76,131.97h-75.61c14.44-7.72,31.37-11.1,48.83-8.68
					C481.63,124.63,490.64,127.63,498.76,131.97z"/>
			</g>
			<g>
				<path style="fill:#B3C0C6;" d="M525.78,155.46H396.05c2.99-4.09,6.36-7.87,10.04-11.3h109.69
					C519.47,147.61,522.82,151.39,525.78,155.46z"/>
			</g>
		</g>
		<g>
			<path style="fill:#F75C5C;" d="M670.986,510.139c17.508,2.747,33.776,3.892,46.147,0c0,0,10.468-117.347-8.089-225.165
				l-37.113,0.162C671.932,285.137,657.657,414.714,670.986,510.139z"/>
		</g>
		<g>
			<path style="fill:#F75C5C;" d="M568.94,510.139c16.9,2.39,32.706,2.945,46.429,0c56.953-105.656,80.789-225.003,80.789-225.003
				h-44.004C595.315,383.05,568.94,510.139,568.94,510.139z"/>
		</g>
		<g>
			<path style="fill:#FFFFFF;" d="M605.596,254.443l-24.98-13.441l-9.101,11.834c0,0,14.724,38.379,43.597,35.151
				c23.097-2.582,37.024-45.877,37.024-45.877L605.596,254.443z"/>
		</g>
		<g>
			<path style="fill:#FFFFFF;" d="M720.052,317.292c-39.732,18.086-97.484,2.255-97.484,2.255l1.761-5.852l0.27-0.904l15.021-50.018
				l-39.498-0.475c0,0,26.463-37.132,41.875-46.161c4.025-2.357,9.42-4.137,15.523-5.255c0.475-0.084,0.96-0.168,1.444-0.242
				c9.924-1.621,21.534-1.51,32.109,0.727c0.373,0.075,0.745,0.158,1.109,0.242c5.935,1.342,11.508,3.364,16.232,6.141
				c0,0-2.833,15.952,1.137,26.789c9.029,24.637,10.389,54.062,10.529,66.604c0.009,0.354,0.009,0.689,0.009,1.016
				C720.117,315.419,720.052,317.292,720.052,317.292z"/>
		</g>
		<g>
			
				<rect x="597.566" y="247.999" transform="matrix(0.6317 -0.7752 0.7752 0.6317 32.2707 564.9201)" style="fill:#47393D;" width="26.144" height="1"/>
		</g>
		<g>
			<path style="fill:#47393D;" d="M669.899,177.39c0,0-12.948-4.855-9.54-20.529c0,0,1.491,1.193,6.091,0.809
				c4.2-0.35,19.805-6.942,27.642,8.05c7.773,14.87-2.896,32.54-13.459,29.473C670.891,192.365,669.729,180.798,669.899,177.39z"/>
		</g>
		<g>
			<circle style="fill:#FFB587;" cx="672.199" cy="181.223" r="4.472"/>
		</g>
		<g>
			<path style="fill:#47393D;" d="M716.58,190.94c1.51,0.31,6.5,1.7,8.45,6.65c2.52,6.42,4.07,10.28,12.19,11.01l-2.13,2.48
				c-17.12,0.91-7.4-20.29-22.13-16.82c-4.68,1.1-6.38-6.58-7.81-17.93c-1.43-11.35-13.23-5.93-13.23-5.93l-0.15-5.83
				c0,0,7.13-12.3,17.32-5.94c10.19,6.35,7.03,21.05,21.44,12.3c16.93-10.28,26.96,14.09,26.96,14.09l-19.29,22.45
				c-1.84,0.02-7.5-0.36-10.32-5.87C724.39,194.76,723.75,192.19,716.58,190.94z"/>
		</g>
		<g>
			<path style="fill:#47393D;" d="M663.646,201.536c-5.021,0-7.744-2.598-7.897-2.749l0.7-0.714
				c0.193,0.189,4.844,4.575,13.436,1.17l0.369,0.93C667.737,201.17,665.53,201.536,663.646,201.536z"/>
		</g>
		<g>
			<path style="fill:#FFB587;" d="M686.053,210.22c-11.717,5.507-21.442-0.508-21.442-0.508l0.273-2.148l20.739-0.273
				L686.053,210.22z"/>
		</g>
		<g>
			<g>
				<path style="fill:#47393D;" d="M720.089,312.157c-15.291,6.29-31.662,8.349-46.571,8.349c-22.941,0-42.424-4.892-49.189-6.811
					l0.27-0.904c11.107,3.168,56.858,14.415,95.48-1.649C720.089,311.496,720.089,311.831,720.089,312.157z"/>
			</g>
		</g>
		<g>
			<path style="fill:#47393D;" d="M719.554,317.293c0-0.426-0.14-42.962-10.473-72.591l0.943-0.329
				c10.391,29.79,10.529,72.492,10.529,72.92H719.554z"/>
		</g>
		<g>
			<g>
				<path style="fill:#47393D;" d="M692.182,211.608c-4.333,4.165-9.439,5.581-14.406,5.581c-9.569,0-18.57-5.274-20.257-6.308
					c0.475-0.084,0.96-0.168,1.444-0.242c4.547,2.618,20.947,10.809,32.109,0.727C691.446,211.44,691.818,211.524,692.182,211.608z"
					/>
			</g>
		</g>
		<g>
			<g>
				<path style="fill:#47393D;" d="M598.752,541.748h-48.155c-0.058-0.57-0.174-2.33,0.193-4.176
					c0.019-0.039,47.285,0.271,47.285,0.271L598.752,541.748z"/>
			</g>
			<g>
				<path style="fill:#F75C5C;" d="M598.075,537.842l-47.265-0.309c0.454-4.892,6.593-7.193,12.326-8.653
					c0.387-0.097,0.764-0.184,1.141-0.28c0.822-0.193,1.624-0.367,2.388-0.541c0.396-0.087,0.783-0.174,1.15-0.251
					c1.982-0.445,3.625-0.822,4.573-1.266c0.851-0.406,1.885-0.996,2.784-1.537c0.309-0.184,0.59-0.367,0.851-0.532
					c0.851-0.532,1.46-0.938,1.46-0.938c3.094,1.015,7.753,3.925,17.982-0.706l0.309,1.779l0.174,1.005L598.075,537.842z"/>
			</g>
			<g>
				<g>
					<g>
						<path style="fill:#47393D;" d="M564.277,528.6c-0.715,1.653-0.793,3.432-0.793,3.451l-0.967-0.039
							c0.01-0.097,0.068-1.547,0.619-3.132C563.523,528.783,563.9,528.696,564.277,528.6z"/>
					</g>
				</g>
				<g>
					<g>
						<path style="fill:#47393D;" d="M567.815,527.807c-0.793,1.711-0.87,3.606-0.87,3.625l-0.967-0.029
							c0-0.106,0.068-1.682,0.686-3.345C567.061,527.971,567.448,527.884,567.815,527.807z"/>
					</g>
				</g>
			</g>
			<g>
				<g>
					<path style="fill:#47393D;" d="M595.948,525.612c-4.215,2.098-7.821,2.823-10.808,2.823c-5.52,0-8.894-2.494-9.967-3.432
						c0.309-0.184,0.59-0.367,0.851-0.532c1.798,1.537,8.382,5.926,19.751,0.135L595.948,525.612z"/>
				</g>
			</g>
		</g>
		<g>
			<g>
				<path style="fill:#47393D;" d="M253.917,541.748h48.155c0.058-0.57,0.174-2.33-0.193-4.176
					c-0.019-0.039-47.285,0.271-47.285,0.271L253.917,541.748z"/>
			</g>
			<g>
				<path style="fill:#F75C5C;" d="M254.594,537.842l47.265-0.309c-0.454-4.892-6.593-7.193-12.326-8.653
					c-0.387-0.097-0.764-0.184-1.141-0.28c-0.822-0.193-1.624-0.367-2.388-0.541c-0.396-0.087-0.783-0.174-1.15-0.251
					c-1.982-0.445-3.625-0.822-4.573-1.266c-0.851-0.406-1.885-0.996-2.784-1.537c-0.309-0.184-0.59-0.367-0.851-0.532
					c-0.851-0.532-1.46-0.938-1.46-0.938c-3.094,1.015-7.754,3.925-17.982-0.706l-0.309,1.779l-0.174,1.005L254.594,537.842z"/>
			</g>
			<g>
				<g>
					<g>
						<path style="fill:#47393D;" d="M288.392,528.6c0.715,1.653,0.793,3.432,0.793,3.451l0.967-0.039
							c-0.01-0.097-0.068-1.547-0.619-3.132C289.146,528.783,288.769,528.696,288.392,528.6z"/>
					</g>
				</g>
				<g>
					<g>
						<path style="fill:#47393D;" d="M284.854,527.807c0.793,1.711,0.87,3.606,0.87,3.625l0.967-0.029
							c0-0.106-0.068-1.682-0.686-3.345C285.608,527.971,285.221,527.884,284.854,527.807z"/>
					</g>
				</g>
			</g>
			<g>
				<g>
					<path style="fill:#47393D;" d="M256.721,525.612c4.215,2.098,7.821,2.823,10.809,2.823c5.52,0,8.894-2.494,9.967-3.432
						c-0.309-0.184-0.59-0.367-0.851-0.532c-1.798,1.537-8.382,5.926-19.751,0.135L256.721,525.612z"/>
				</g>
			</g>
		</g>
		<g>
			<g>
				<path style="fill:#47393D;" d="M167.031,541.748h48.155c0.058-0.57,0.174-2.33-0.193-4.176
					c-0.019-0.039-47.285,0.271-47.285,0.271L167.031,541.748z"/>
			</g>
			<g>
				<path style="fill:#F75C5C;" d="M167.708,537.842l47.265-0.309c-0.454-4.892-6.593-7.193-12.326-8.653
					c-0.387-0.097-0.764-0.184-1.141-0.28c-0.822-0.193-1.624-0.367-2.388-0.541c-0.396-0.087-0.783-0.174-1.15-0.251
					c-1.982-0.445-3.625-0.822-4.573-1.266c-0.851-0.406-1.885-0.996-2.784-1.537c-0.309-0.184-0.59-0.367-0.851-0.532
					c-0.851-0.532-1.46-0.938-1.46-0.938c-3.094,1.015-7.753,3.925-17.982-0.706l-0.309,1.779l-0.174,1.005L167.708,537.842z"/>
			</g>
			<g>
				<g>
					<g>
						<path style="fill:#47393D;" d="M201.506,528.6c0.715,1.653,0.793,3.432,0.793,3.451l0.967-0.039
							c-0.01-0.097-0.068-1.547-0.619-3.132C202.26,528.783,201.883,528.696,201.506,528.6z"/>
					</g>
				</g>
				<g>
					<g>
						<path style="fill:#47393D;" d="M197.968,527.807c0.793,1.711,0.87,3.606,0.87,3.625l0.967-0.029
							c0-0.106-0.068-1.682-0.686-3.345C198.722,527.971,198.335,527.884,197.968,527.807z"/>
					</g>
				</g>
			</g>
			<g>
				<g>
					<path style="fill:#47393D;" d="M169.835,525.612c4.215,2.098,7.821,2.823,10.808,2.823c5.52,0,8.894-2.494,9.967-3.432
						c-0.309-0.184-0.59-0.367-0.851-0.532c-1.798,1.537-8.382,5.926-19.751,0.135L169.835,525.612z"/>
				</g>
			</g>
		</g>
		<g>
			<path style="fill:#47393D;" d="M757.987,182.301c-0.056-0.126-5.667-12.55-14.811-15.276c-3.844-1.146-7.811-0.423-11.794,2.148
				c-3.833,2.474-6.676,3.375-8.945,2.842c-2.685-0.633-4.172-3.144-5.894-6.05c-1.751-2.958-3.736-6.311-7.461-8.494
				c-2.637-1.545-5.265-1.971-7.811-1.265c-5.32,1.477-8.614,7.426-8.646,7.485l-0.879-0.477c0.142-0.26,3.521-6.376,9.252-7.97
				c2.82-0.786,5.708-0.325,8.59,1.365c3.947,2.314,6.003,5.785,7.815,8.847c1.605,2.71,2.991,5.051,5.263,5.586
				c1.991,0.467,4.585-0.394,8.173-2.709c4.242-2.738,8.492-3.5,12.626-2.266c9.586,2.861,15.201,15.299,15.436,15.828
				L757.987,182.301z"/>
		</g>
		<g>
			<path style="fill:#47393D;" d="M669.782,177.876c-6.774-1.638-10.959-4.535-12.439-8.608c-2.208-6.075,2.416-12.436,2.613-12.704
				l0.805,0.594c-0.045,0.061-4.503,6.206-2.477,11.773c1.36,3.736,5.308,6.419,11.732,7.973L669.782,177.876z"/>
		</g>
		<g>
			<path style="fill:#FFE6CF;" d="M115.581,318.692c9.602-12.816,11.53-30.96,4.836-45.508c-1.887-4.101-4.517-8.031-8.353-10.41
				c-3.836-2.379-9.058-2.897-12.803-0.376c-4.003,2.694-5.351,7.941-5.715,12.753c-0.364,4.812-0.094,9.837-2.071,14.239
				c-5.356,11.923-23.74,13.007-29.452,24.763c-2.818,5.8-0.556,14.3,5.444,17.655C78.815,338.151,105.98,331.508,115.581,318.692z"
				/>
		</g>
		<g>
			<path style="fill:#47393D;" d="M615.81,510.377l-0.881-0.475c30.605-56.776,51.528-117.595,63.69-158.617l0.959,0.285
				C667.402,392.637,646.455,453.524,615.81,510.377z"/>
		</g>
		<g>
			<path style="fill:#7178D5;" d="M791.908,393.34c-19.106,73.021-65.419,148.34-65.419,148.34l-73.234,0.573
				c-11.183-6.403-21.286-14.978-29.543-25.365c-7.61-9.581-13.59-24.395-6.174-34.163c4.922-6.484,13.59-7.548,21.34-7.664
				c16.051-0.245,32.134,1.507,47.818,5.223c-18.816-16.364-46.149-102.701-10.417-109.256
				c15.093-2.769,33.419,12.773,37.175,28.826c0.766-10.784,10.492-19.862,20.466-19.114c9.963,0.759,18.425,11.204,17.81,22.012
				c4.685-9.242,12.813-17,22.473-18.32C782.081,383.368,788.077,386.097,791.908,393.34z"/>
		</g>
		<g>
			<path style="fill:#47393D;" d="M726.243,491.391c-28.411-14.494-77.015-15.449-77.502-15.457l0.016-1
				c0.49,0.008,49.322,0.966,77.941,15.566L726.243,491.391z"/>
		</g>
		<g>
			<path style="fill:#47393D;" d="M746.814,434.871l-1-0.014c0.006-0.386,0.798-38.61,21.779-48.768l0.435,0.9
				C747.603,396.879,746.82,434.493,746.814,434.871z"/>
		</g>
		<g>
			<path style="fill:#47393D;" d="M725.421,451.22c-5.777-60.194-27.456-73.071-27.675-73.194l0.489-0.872
				c0.909,0.509,22.345,13.157,28.182,73.971L725.421,451.22z"/>
		</g>
		<g>
			<path style="fill:#47393D;" d="M750.673,447.603l-1-0.023c0.03-1.257,0.818-30.892,7.808-40.845l0.818,0.574
				C751.483,417.016,750.68,447.299,750.673,447.603z"/>
		</g>
		<g>
			<path style="fill:#47393D;" d="M696.4,486.658c-31.515-7.841-59.451-5.186-59.727-5.159l-0.1-0.994
				c0.281-0.028,28.38-2.701,60.069,5.183L696.4,486.658z"/>
		</g>
		<g>
			<path style="fill:#47393D;" d="M658.114,539.137c-13.563-5.555-26.169-21.472-26.295-21.632l0.787-0.617
				c0.124,0.158,12.571,15.87,25.887,21.323L658.114,539.137z"/>
		</g>
		<g>
			<path style="fill:#47393D;" d="M140.677,152.692l-0.972-0.235c0.041-0.169,4.256-17.151,17.06-34.772
				c11.824-16.272,33.598-36.449,70.184-40.161l0.101,0.995c-36.218,3.674-57.771,23.646-69.476,39.754
				C144.886,135.735,140.718,152.525,140.677,152.692z"/>
		</g>
		<g>
			<path style="fill:#47393D;" d="M166.077,94.715l-0.707-0.707c0.297-0.298,30.338-29.764,80.013-29.764v1
				C196.138,65.245,166.372,94.421,166.077,94.715z"/>
		</g>
		<g>
			<path style="fill:#47393D;" d="M686.947,89.996c-19.482-42.62-60.523-45.539-83.26-43.486l-0.09-0.996
				c22.991-2.075,64.52,0.887,84.26,44.066L686.947,89.996z"/>
		</g>
		<g>
			<path style="fill:#47393D;" d="M694.132,87.217c-6.369-25.698-29.994-37.234-30.231-37.348l0.43-0.902
				c0.242,0.115,24.287,11.842,30.772,38.01L694.132,87.217z"/>
		</g>
		<g>
			
				<rect x="643.752" y="256.5" transform="matrix(0.6545 -0.756 0.756 0.6545 29.5402 578.6449)" style="fill:#47393D;" width="8.327" height="1"/>
		</g>
		<g>
			<path style="fill:#47393D;" d="M715.478,312.064h-1c0-9.734-1.177-21.957-1.189-22.079l0.996-0.097
				C714.297,290.01,715.478,302.28,715.478,312.064z"/>
		</g>
		<g>
			<path style="fill:#47393D;" d="M180.524,274.085l-0.864-0.503c2.683-4.608,6.77-8.785,12.15-12.412l0.559,0.829
				C187.115,265.542,183.13,269.608,180.524,274.085z"/>
		</g>
		<g>
			
				<rect x="181.688" y="262.5" transform="matrix(0.1914 -0.9815 0.9815 0.1914 -103.1303 400.8134)" style="fill:#47393D;" width="20.029" height="1"/>
		</g>
		<g>
			
				<rect x="289.825" y="252.543" transform="matrix(0.7934 -0.6087 0.6087 0.7934 -92.7198 232.9092)" style="fill:#47393D;" width="13.839" height="0.999"/>
		</g>
		<g>
			<g>
				<path style="fill:#FFBA8C;" d="M180.34,309.66c0.927,0.743,3.822,3.229,4.993,3.43c1.086,0.186,7.083,0.436,6.914,1.703
					c-0.176,1.328-4.267,0.296-4.228,1.366c0.024,0.66,8.01,2.815,7.206,4.213c-0.527,0.918-5.186-1.045-5.28-0.469
					c-0.087,0.535,6.156,1.757,5.444,3.156c-0.747,1.465-6.756-2.228-7.062-1.533c-0.151,0.344,7.145,2.966,6.532,4.093
					c-0.819,1.507-6.422-2.204-6.854-1.549c-0.212,0.322,2.001,1.279,3.246,2.016c0.69,0.409,0.472,1.031-0.072,1.007
					c-5.637-0.251-12.71-7.109-13.613-7.432c-1.343-0.48-2.647-0.979-3.913-1.498L180.34,309.66z"/>
			</g>
		</g>
		<g>
			<path style="fill:#47393D;" d="M611.725,288.678c-26.674,0-40.533-35.291-40.676-35.663l0.934-0.358
				c0.146,0.38,14.929,37.975,43.074,34.833c22.511-2.516,36.466-45.103,36.604-45.534l0.951,0.307
				c-0.572,1.78-14.292,43.633-37.444,46.221C613.997,288.616,612.849,288.678,611.725,288.678z"/>
		</g>
		<g>
			<g style="opacity:0.8;">
				<g>
					<path style="fill:#FFFFFF;" d="M526.308,232.627c0.872-6.919,1.558-13.463,1.775-19.986c0.152-6.501-0.091-12.923-0.892-19.255
						c-0.783-6.353-2.125-12.611-3.895-18.874c-1.825-6.255-4.153-12.421-6.717-18.904l0.403-0.296
						c2.041,2.718,3.909,5.567,5.592,8.525c1.664,2.969,3.134,6.047,4.408,9.204c2.552,6.314,4.291,12.96,5.167,19.721
						c0.826,6.769,0.775,13.636-0.117,20.387c-0.452,3.376-1.105,6.72-1.965,10.015c-0.897,3.284-1.993,6.51-3.296,9.649
						L526.308,232.627z"/>
				</g>
			</g>
			<g style="opacity:0.8;">
				<path style="fill:#FFFFFF;" d="M470.7,274.273c-3.78-0.466-7.47-1.166-11.04-2.081c-37.93-9.671-63.07-43.179-57.5-79.207
					c0.86-5.589,2.42-10.927,4.57-15.978c2.57-6.011,6-11.6,10.13-16.669c2.99-3.669,6.36-7.06,10.04-10.138
					c5.12-4.288,10.86-7.975,17.06-10.936c9.24-4.432,19.51-7.267,30.28-8.173c-16.13-1.328-31.68,1.74-45.09,8.173
					c-6.2,2.96-11.94,6.648-17.06,10.936c-3.68,3.077-7.05,6.468-10.04,10.138c-4.13,5.069-7.56,10.658-10.13,16.669
					c-2.15,5.051-3.71,10.389-4.57,15.978c-5.57,36.029,19.57,69.536,57.5,79.207c3.57,0.915,7.26,1.615,11.04,2.081
					c6.28,0.78,12.48,0.888,18.53,0.386C473.18,274.56,471.94,274.425,470.7,274.273z M470.7,274.273
					c-3.78-0.466-7.47-1.166-11.04-2.081c-37.93-9.671-63.07-43.179-57.5-79.207c0.86-5.589,2.42-10.927,4.57-15.978
					c2.57-6.011,6-11.6,10.13-16.669c2.99-3.669,6.36-7.06,10.04-10.138c5.12-4.288,10.86-7.975,17.06-10.936
					c9.24-4.432,19.51-7.267,30.28-8.173c-16.13-1.328-31.68,1.74-45.09,8.173c-6.2,2.96-11.94,6.648-17.06,10.936
					c-3.68,3.077-7.05,6.468-10.04,10.138c-4.13,5.069-7.56,10.658-10.13,16.669c-2.15,5.051-3.71,10.389-4.57,15.978
					c-5.57,36.029,19.57,69.536,57.5,79.207c3.57,0.915,7.26,1.615,11.04,2.081c6.28,0.78,12.48,0.888,18.53,0.386
					C473.18,274.56,471.94,274.425,470.7,274.273z"/>
			</g>
		</g>
		<g>
			<g>
				<g>
					<polygon style="fill:#F75C5C;" points="418.61,207.939 403.333,207.95 403.358,226.156 393.086,226.167 393.061,207.961 
						393.061,199.942 393.049,189.755 393.036,181.736 403.308,181.724 422.184,181.702 422.197,189.721 403.321,189.744 
						403.333,199.93 418.597,199.919 					"/>
				</g>
				<g>
					<polygon style="fill:#F75C5C;" points="393.061,199.942 393.061,207.961 393.049,199.942 					"/>
				</g>
			</g>
			<g>
				<g>
					<polygon style="fill:#F75C5C;" points="528.819,226.031 509.931,226.043 499.659,226.054 499.633,199.817 499.621,189.63 
						499.608,181.611 509.893,181.599 528.769,181.588 528.769,189.608 509.905,189.619 509.905,199.805 525.182,199.794 
						525.182,207.825 509.918,207.837 509.918,218.023 528.807,218 					"/>
				</g>
			</g>
			<g>
				<g>
					<path style="fill:#F75C5C;" d="M446.979,181.679h-3.261l-7.011,0.011h-3.261l-13.006,44.443l10.272-0.011l2.684-9.154
						l13.709-0.023l2.697,9.165l10.272-0.011L446.979,181.679z M435.741,208.937l4.478-15.325l4.515,15.325H435.741z"/>
				</g>
				<g>
					<path style="fill:#F75C5C;" d="M443.718,181.679l-7.011,0.011C436.707,181.679,443.718,181.679,443.718,181.679z"/>
				</g>
			</g>
			<g>
				<polygon style="fill:#F75C5C;" points="496.749,226.056 486.473,226.065 475.745,209.021 473.665,206.264 473.687,226.08 
					463.411,226.089 463.363,181.651 473.639,181.642 473.657,198.674 475.97,195.742 485.111,181.632 495.387,181.623 
					481.001,202.377 				"/>
			</g>
		</g>
	</g>
</g>
</svg>
