<?xml version="1.0" encoding="utf-8"?>
<!-- Generator: Adobe Illustrator 27.5.0, SVG Export Plug-In . SVG Version: 6.00 Build 0)  -->
<svg version="1.1" xmlns="http://www.w3.org/2000/svg" xmlns:xlink="http://www.w3.org/1999/xlink" x="0px" y="0px"
	 viewBox="0 0 750 500" style="enable-background:new 0 0 750 500;" xml:space="preserve">
<g id="BACKGROUND">
	<linearGradient id="SVGID_1_" gradientUnits="userSpaceOnUse" x1="375" y1="492.4385" x2="375" y2="12.4737">
		<stop  offset="4.960300e-04" style="stop-color:#3A66DD"/>
		<stop  offset="1" style="stop-color:#6388F7"/>
	</linearGradient>
	<rect style="fill:url(#SVGID_1_);" width="750" height="500.149"/>
</g>
<g id="OBJECTS">
	<g>
		<path style="fill:#FFFFFF;" d="M601.719,285.104c2.236-3.873,7.826-3.873,10.062,0l12.651,21.913l12.651,21.913
			c2.236,3.873-0.559,8.714-5.031,8.714H606.75h-25.303c-4.472,0-7.267-4.841-5.031-8.714l12.651-21.913L601.719,285.104z"/>
		<g>
			<path style="fill:#FA716F;" d="M603.045,324.59c0-2.148,1.553-3.852,3.704-3.852c2.148,0,3.704,1.704,3.704,3.852
				c0,2.148-1.557,3.852-3.704,3.852C604.599,328.442,603.045,326.737,603.045,324.59z M603.784,308.66l-0.223-5.481h6.374
				l-0.223,5.481l-0.89,10.298h-4.148L603.784,308.66z"/>
		</g>
	</g>
	<ellipse style="opacity:0.2;fill:#4873E6;" cx="375" cy="404.599" rx="281.748" ry="9.021"/>
	<g>
		<g>
			<path style="fill:#FFFFFF;" d="M456.682,104.37v279.812c0,10.784-8.748,19.532-19.532,19.532h-124.3
				c-10.784,0-19.532-8.748-19.532-19.532V104.37c0-10.784,8.747-19.532,19.532-19.532h124.3
				C447.935,84.838,456.682,93.586,456.682,104.37z"/>
			<path style="fill:#C7E2FF;" d="M437.152,88.392h-31.66c-1.665,0-3.276,0.585-4.553,1.652l-4.921,4.113
				c-1.277,1.067-2.889,1.652-4.553,1.652h-32.929c-1.665,0-3.276-0.585-4.553-1.652l-4.922-4.113
				c-1.277-1.067-2.889-1.652-4.553-1.652h-31.66c-8.823,0-15.975,7.153-15.975,15.975v279.819c0,8.823,7.152,15.975,15.975,15.975
				h124.305c8.823,0,15.975-7.152,15.975-15.975V104.367C453.128,95.545,445.975,88.392,437.152,88.392z"/>
			<g>
				<g>
					<path style="fill:#C7E2FF;" d="M380.186,92.173h-15.888c-0.82,0-1.484-0.664-1.484-1.485c0-0.821,0.664-1.485,1.484-1.485
						h15.888c0.821,0,1.485,0.664,1.485,1.485C381.671,91.509,381.007,92.173,380.186,92.173z"/>
				</g>
				<g>
					<path style="fill:#C7E2FF;" d="M385.701,92.169c-0.402,0-0.773-0.149-1.054-0.431c-0.283-0.283-0.431-0.654-0.431-1.054
						c0-0.193,0.029-0.387,0.103-0.564c0.075-0.178,0.193-0.342,0.328-0.476c0.341-0.357,0.845-0.521,1.335-0.416
						c0.104,0.014,0.193,0.045,0.283,0.09c0.089,0.029,0.178,0.074,0.252,0.133c0.088,0.059,0.162,0.119,0.222,0.193
						c0.149,0.133,0.254,0.297,0.328,0.476c0.074,0.177,0.119,0.371,0.119,0.564c0,0.4-0.164,0.771-0.447,1.054
						C386.473,92.019,386.102,92.169,385.701,92.169z"/>
				</g>
			</g>
		</g>
		<g>
			<path style="fill:#ACD4FF;" d="M382.426,236.095h-36.054c-2.488,0-4.505-2.017-4.505-4.505c0-2.488,2.017-4.505,4.505-4.505
				h36.054c2.488,0,4.505,2.017,4.505,4.505C386.931,234.078,384.915,236.095,382.426,236.095z M408.132,231.59
				c0-2.488-2.017-4.505-4.505-4.505h-8.306c-2.488,0-4.505,2.017-4.505,4.505c0,2.488,2.017,4.505,4.505,4.505h8.306
				C406.116,236.095,408.132,234.078,408.132,231.59z"/>
			<path style="fill:#FFFFFF;" d="M428.951,261.615H321.048c-4.273,0-7.737-3.464-7.737-7.737l0,0c0-4.273,3.464-7.737,7.737-7.737
				h107.903c4.273,0,7.737,3.464,7.737,7.737l0,0C436.688,258.151,433.224,261.615,428.951,261.615z"/>
			<path style="fill:#FFFFFF;" d="M428.951,287.406H321.048c-4.273,0-7.737-3.464-7.737-7.737l0,0c0-4.273,3.464-7.737,7.737-7.737
				h107.903c4.273,0,7.737,3.464,7.737,7.737l0,0C436.688,283.942,433.224,287.406,428.951,287.406z"/>
			<path style="fill:#D6E9ED;" d="M354.75,256.146v-0.076c-0.405,0.389-0.88,0.611-1.383,0.611c-0.621,0-1.15-0.259-1.523-0.713
				c-0.373-0.454-0.583-1.081-0.583-1.794v-2.064c0-0.303,0.238-0.53,0.54-0.53s0.535,0.227,0.535,0.53v2.075
				c0,0.427,0.102,0.773,0.313,1.032c0.2,0.254,0.492,0.394,0.843,0.394c0.362,0,0.67-0.14,0.902-0.4c0.238-0.265,0.356-0.6,0.356-1
				v-2.085c0-0.303,0.233-0.535,0.535-0.535c0.146,0,0.292,0.059,0.384,0.151c0.103,0.102,0.157,0.232,0.157,0.384v4.019
				c0,0.151-0.054,0.276-0.162,0.378c-0.113,0.108-0.243,0.162-0.389,0.162C354.971,256.686,354.75,256.448,354.75,256.146z
				 M357.99,256.519c-0.372-0.162-0.637-0.394-0.8-0.697c-0.054-0.098-0.081-0.194-0.081-0.297c0-0.091,0.022-0.172,0.065-0.238
				c0.086-0.151,0.243-0.238,0.432-0.238c0.173,0,0.346,0.081,0.481,0.253c0.238,0.346,0.497,0.487,0.945,0.487
				c0.201,0,0.384-0.048,0.54-0.146c0.158-0.092,0.238-0.227,0.238-0.394c0-0.108-0.027-0.194-0.087-0.265
				c-0.102-0.129-0.264-0.232-0.497-0.303l-0.291-0.092c-0.513-0.179-0.886-0.34-1.173-0.557c-0.351-0.254-0.529-0.578-0.529-0.972
				c0-0.437,0.205-0.821,0.546-1.086c0.324-0.254,0.773-0.4,1.232-0.4c0.324,0,0.632,0.06,0.919,0.179
				c0.319,0.135,0.535,0.313,0.654,0.546c0.038,0.076,0.059,0.157,0.059,0.238c0,0.108-0.038,0.206-0.119,0.292
				c-0.097,0.108-0.216,0.162-0.351,0.162c-0.065,0-0.124-0.01-0.179-0.038l-0.216-0.162c-0.103-0.07-0.173-0.119-0.206-0.135
				c-0.157-0.091-0.319-0.135-0.486-0.135c-0.459,0-0.773,0.179-0.773,0.508c0,0.157,0.086,0.287,0.265,0.399
				c0.151,0.092,0.346,0.168,0.654,0.26c0.503,0.157,0.859,0.298,1.134,0.514c0.325,0.253,0.487,0.589,0.487,1.005
				c0,0.427-0.189,0.805-0.519,1.086c-0.329,0.281-0.783,0.444-1.296,0.444C358.66,256.735,358.309,256.665,357.99,256.519z
				 M362.661,255.984c-0.481-0.475-0.762-1.124-0.762-1.821c0-0.698,0.281-1.352,0.762-1.827c0.48-0.475,1.129-0.751,1.826-0.751
				c0.692,0,1.335,0.275,1.816,0.745c0.48,0.47,0.767,1.113,0.773,1.805c0,0.303-0.222,0.513-0.53,0.513h-3.453
				c0.086,0.303,0.27,0.568,0.513,0.757c0.244,0.195,0.557,0.297,0.881,0.297c0.416,0,0.736-0.13,0.968-0.384
				c0.113-0.092,0.232-0.135,0.356-0.135c0.059,0,0.119,0.01,0.179,0.033c0.102,0.038,0.188,0.114,0.259,0.227
				c0.06,0.092,0.092,0.194,0.092,0.303c0,0.157-0.07,0.291-0.206,0.405c-0.194,0.179-0.405,0.319-0.637,0.411
				c-0.287,0.114-0.627,0.173-1.011,0.173C363.79,256.735,363.141,256.459,362.661,255.984z M365.968,253.752
				c-0.081-0.33-0.26-0.616-0.513-0.816c-0.265-0.211-0.6-0.325-0.951-0.325c-0.363,0-0.676,0.108-0.941,0.325
				c-0.253,0.21-0.432,0.491-0.502,0.816H365.968z M368.559,256.519c-0.107-0.108-0.162-0.232-0.162-0.378v-4.02
				c0-0.145,0.055-0.275,0.162-0.384c0.103-0.102,0.232-0.157,0.384-0.157c0.157,0,0.281,0.055,0.378,0.157
				c0.103,0.108,0.151,0.238,0.151,0.384c0.492-0.356,1.027-0.534,1.61-0.534h0.022c0.346,0,0.556,0.216,0.556,0.534
				c0,0.303-0.248,0.535-0.556,0.535h-0.022c-0.432,0-0.838,0.173-1.134,0.476c-0.303,0.303-0.476,0.708-0.476,1.156v1.853
				c0,0.303-0.232,0.535-0.535,0.535C368.792,256.675,368.662,256.622,368.559,256.519z M376.347,256.157v-2.075
				c-0.005-0.438-0.108-0.784-0.308-1.038c-0.211-0.259-0.492-0.389-0.848-0.389c-0.362,0-0.681,0.141-0.903,0.4
				c-0.221,0.259-0.356,0.611-0.356,0.999v2.086c0,0.303-0.232,0.535-0.535,0.535c-0.146,0-0.275-0.054-0.378-0.157
				c-0.108-0.108-0.162-0.232-0.162-0.378v-4.02c0-0.157,0.054-0.281,0.162-0.384c0.114-0.102,0.238-0.157,0.384-0.157
				c0.157,0,0.282,0.055,0.378,0.157c0.103,0.108,0.151,0.238,0.151,0.384v0.076c0.406-0.389,0.881-0.61,1.378-0.61
				c0.621,0,1.151,0.253,1.524,0.707c0.372,0.449,0.583,1.075,0.583,1.789v2.075c0,0.302-0.232,0.529-0.535,0.529
				S376.347,256.459,376.347,256.157z M379.442,255.984c-0.481-0.481-0.757-1.124-0.757-1.821c0-0.698,0.275-1.34,0.757-1.821
				c0.475-0.475,1.124-0.756,1.821-0.756s1.335,0.27,1.81,0.745c0.476,0.475,0.757,1.118,0.762,1.81v1.983
				c0,0.145-0.054,0.275-0.157,0.389c-0.092,0.102-0.243,0.162-0.394,0.162c-0.282,0-0.497-0.21-0.524-0.492
				c-0.459,0.373-0.956,0.557-1.497,0.557C380.566,256.741,379.917,256.459,379.442,255.984z M382.327,255.216
				c0.275-0.275,0.432-0.648,0.432-1.053c0-0.411-0.157-0.784-0.432-1.059c-0.275-0.276-0.654-0.432-1.065-0.432
				c-0.405,0-0.778,0.157-1.053,0.432c-0.282,0.281-0.443,0.654-0.443,1.059c0,0.405,0.168,0.778,0.443,1.053
				c0.275,0.275,0.648,0.443,1.053,0.443C381.674,255.66,382.052,255.492,382.327,255.216z M385.616,256.519
				c-0.108-0.108-0.162-0.232-0.162-0.378v-4.02c0-0.157,0.054-0.281,0.162-0.384c0.113-0.102,0.237-0.157,0.384-0.157
				c0.265,0,0.476,0.189,0.519,0.449c0.324-0.297,0.68-0.449,1.064-0.449c0.562,0,1.044,0.227,1.373,0.633
				c0.416-0.394,0.989-0.633,1.545-0.633c0.535,0,0.994,0.206,1.319,0.573c0.319,0.363,0.497,0.848,0.497,1.389v2.604
				c0,0.303-0.232,0.53-0.53,0.53c-0.146,0-0.27-0.054-0.384-0.157c-0.108-0.103-0.162-0.227-0.162-0.373v-2.62
				c-0.005-0.243-0.087-0.465-0.232-0.621c-0.163-0.162-0.363-0.243-0.6-0.243c-0.232,0-0.475,0.097-0.664,0.248
				c-0.189,0.151-0.308,0.362-0.325,0.594v2.642c0,0.303-0.232,0.53-0.529,0.53c-0.146,0-0.271-0.054-0.384-0.157
				c-0.108-0.103-0.163-0.227-0.163-0.373v-2.642c-0.005-0.243-0.086-0.448-0.238-0.605c-0.151-0.157-0.346-0.238-0.589-0.238
				c-0.238,0-0.476,0.092-0.665,0.243c-0.194,0.157-0.318,0.373-0.324,0.594v0.033c-0.005,0.005-0.005,0.011,0,0.022
				c0.005,0.011,0.005,0.026,0,0.043v2.545c0,0.303-0.232,0.535-0.535,0.535C385.848,256.675,385.719,256.622,385.616,256.519z
				 M394.325,255.984c-0.481-0.475-0.762-1.124-0.762-1.821c0-0.698,0.281-1.352,0.762-1.827c0.48-0.475,1.129-0.751,1.826-0.751
				c0.692,0,1.335,0.275,1.816,0.745c0.48,0.47,0.767,1.113,0.773,1.805c0,0.303-0.222,0.513-0.53,0.513h-3.453
				c0.086,0.303,0.27,0.568,0.513,0.757c0.244,0.195,0.557,0.297,0.881,0.297c0.416,0,0.736-0.13,0.968-0.384
				c0.113-0.092,0.232-0.135,0.356-0.135c0.059,0,0.119,0.01,0.178,0.033c0.103,0.038,0.189,0.114,0.26,0.227
				c0.06,0.092,0.092,0.194,0.092,0.303c0,0.157-0.07,0.291-0.206,0.405c-0.195,0.179-0.405,0.319-0.637,0.411
				c-0.287,0.114-0.627,0.173-1.011,0.173C395.454,256.735,394.806,256.459,394.325,255.984z M397.632,253.752
				c-0.081-0.33-0.26-0.616-0.513-0.816c-0.265-0.211-0.6-0.325-0.951-0.325c-0.363,0-0.676,0.108-0.941,0.325
				c-0.253,0.21-0.432,0.491-0.503,0.816H397.632z"/>
			<path style="fill:#D6E9ED;" d="M360.387,280.918c-0.107-0.102-0.162-0.227-0.162-0.384v-0.216l-0.157,0.091
				c-0.091,0.07-0.2,0.103-0.324,0.103c-0.173,0-0.33-0.076-0.433-0.222c-0.069-0.091-0.102-0.205-0.102-0.329
				c0-0.168,0.081-0.33,0.227-0.433l0.27-0.162l-0.26-0.157c-0.151-0.086-0.238-0.254-0.238-0.421c0-0.124,0.033-0.238,0.102-0.33
				c0.092-0.119,0.211-0.194,0.357-0.221c0.021-0.006,0.054-0.006,0.091-0.006c0.114,0,0.222,0.033,0.313,0.103l0.151,0.092v-0.211
				c0-0.308,0.249-0.546,0.557-0.546c0.303,0,0.529,0.238,0.529,0.546v0.205l0.135-0.081c0.081-0.07,0.189-0.102,0.313-0.102
				c0.167,0,0.341,0.086,0.449,0.221c0.07,0.092,0.102,0.201,0.102,0.325c0,0.038,0,0.07-0.005,0.086
				c-0.026,0.151-0.108,0.265-0.232,0.346l-0.259,0.157l0.27,0.157c0.145,0.103,0.221,0.265,0.221,0.438
				c0,0.124-0.033,0.227-0.097,0.318c-0.103,0.146-0.265,0.227-0.432,0.227c-0.125,0-0.233-0.038-0.325-0.108l-0.141-0.081v0.21
				c0,0.151-0.054,0.282-0.157,0.384c-0.107,0.108-0.238,0.163-0.384,0.163C360.631,281.081,360.5,281.026,360.387,280.918z
				 M365.133,280.918c-0.107-0.102-0.162-0.227-0.162-0.384v-0.216l-0.157,0.091c-0.092,0.07-0.2,0.103-0.324,0.103
				c-0.173,0-0.33-0.076-0.433-0.222c-0.07-0.091-0.102-0.205-0.102-0.329c0-0.168,0.081-0.33,0.227-0.433l0.27-0.162l-0.26-0.157
				c-0.151-0.086-0.238-0.254-0.238-0.421c0-0.124,0.033-0.238,0.102-0.33c0.092-0.119,0.211-0.194,0.357-0.221
				c0.021-0.006,0.054-0.006,0.091-0.006c0.114,0,0.222,0.033,0.313,0.103l0.151,0.092v-0.211c0-0.308,0.249-0.546,0.557-0.546
				c0.303,0,0.529,0.238,0.529,0.546v0.205l0.135-0.081c0.081-0.07,0.189-0.102,0.313-0.102c0.167,0,0.341,0.086,0.449,0.221
				c0.07,0.092,0.102,0.201,0.102,0.325c0,0.038,0,0.07-0.005,0.086c-0.026,0.151-0.108,0.265-0.232,0.346l-0.259,0.157l0.27,0.157
				c0.145,0.103,0.221,0.265,0.221,0.438c0,0.124-0.033,0.227-0.097,0.318c-0.103,0.146-0.265,0.227-0.432,0.227
				c-0.125,0-0.233-0.038-0.325-0.108l-0.141-0.081v0.21c0,0.151-0.054,0.282-0.157,0.384c-0.107,0.108-0.237,0.163-0.384,0.163
				C365.377,281.081,365.247,281.026,365.133,280.918z M369.88,280.918c-0.107-0.102-0.162-0.227-0.162-0.384v-0.216l-0.157,0.091
				c-0.091,0.07-0.2,0.103-0.324,0.103c-0.173,0-0.33-0.076-0.433-0.222c-0.069-0.091-0.102-0.205-0.102-0.329
				c0-0.168,0.081-0.33,0.227-0.433l0.27-0.162l-0.26-0.157c-0.151-0.086-0.238-0.254-0.238-0.421c0-0.124,0.033-0.238,0.102-0.33
				c0.092-0.119,0.211-0.194,0.357-0.221c0.021-0.006,0.054-0.006,0.091-0.006c0.114,0,0.222,0.033,0.313,0.103l0.151,0.092v-0.211
				c0-0.308,0.249-0.546,0.557-0.546c0.303,0,0.529,0.238,0.529,0.546v0.205l0.135-0.081c0.081-0.07,0.189-0.102,0.313-0.102
				c0.167,0,0.341,0.086,0.449,0.221c0.07,0.092,0.102,0.201,0.102,0.325c0,0.038,0,0.07-0.005,0.086
				c-0.026,0.151-0.107,0.265-0.232,0.346l-0.259,0.157l0.27,0.157c0.145,0.103,0.221,0.265,0.221,0.438
				c0,0.124-0.033,0.227-0.097,0.318c-0.103,0.146-0.265,0.227-0.432,0.227c-0.125,0-0.233-0.038-0.325-0.108l-0.141-0.081v0.21
				c0,0.151-0.054,0.282-0.157,0.384c-0.107,0.108-0.238,0.163-0.384,0.163C370.124,281.081,369.994,281.026,369.88,280.918z
				 M374.627,280.918c-0.107-0.102-0.162-0.227-0.162-0.384v-0.216l-0.157,0.091c-0.092,0.07-0.2,0.103-0.324,0.103
				c-0.173,0-0.33-0.076-0.433-0.222c-0.069-0.091-0.102-0.205-0.102-0.329c0-0.168,0.081-0.33,0.227-0.433l0.27-0.162l-0.26-0.157
				c-0.151-0.086-0.238-0.254-0.238-0.421c0-0.124,0.033-0.238,0.102-0.33c0.092-0.119,0.211-0.194,0.357-0.221
				c0.021-0.006,0.054-0.006,0.091-0.006c0.113,0,0.222,0.033,0.313,0.103l0.151,0.092v-0.211c0-0.308,0.249-0.546,0.557-0.546
				c0.303,0,0.529,0.238,0.529,0.546v0.205l0.135-0.081c0.081-0.07,0.189-0.102,0.313-0.102c0.167,0,0.341,0.086,0.449,0.221
				c0.07,0.092,0.102,0.201,0.102,0.325c0,0.038,0,0.07-0.005,0.086c-0.026,0.151-0.107,0.265-0.232,0.346l-0.259,0.157l0.27,0.157
				c0.145,0.103,0.221,0.265,0.221,0.438c0,0.124-0.033,0.227-0.097,0.318c-0.103,0.146-0.265,0.227-0.432,0.227
				c-0.125,0-0.233-0.038-0.325-0.108l-0.141-0.081v0.21c0,0.151-0.054,0.282-0.157,0.384c-0.107,0.108-0.238,0.163-0.384,0.163
				C374.87,281.081,374.74,281.026,374.627,280.918z M379.373,280.918c-0.107-0.102-0.162-0.227-0.162-0.384v-0.216l-0.157,0.091
				c-0.091,0.07-0.2,0.103-0.324,0.103c-0.173,0-0.33-0.076-0.433-0.222c-0.069-0.091-0.102-0.205-0.102-0.329
				c0-0.168,0.081-0.33,0.227-0.433l0.27-0.162l-0.26-0.157c-0.151-0.086-0.238-0.254-0.238-0.421c0-0.124,0.033-0.238,0.102-0.33
				c0.092-0.119,0.211-0.194,0.357-0.221c0.021-0.006,0.054-0.006,0.091-0.006c0.113,0,0.222,0.033,0.313,0.103l0.151,0.092v-0.211
				c0-0.308,0.249-0.546,0.557-0.546c0.303,0,0.529,0.238,0.529,0.546v0.205l0.135-0.081c0.081-0.07,0.189-0.102,0.313-0.102
				c0.167,0,0.341,0.086,0.449,0.221c0.07,0.092,0.102,0.201,0.102,0.325c0,0.038,0,0.07-0.005,0.086
				c-0.026,0.151-0.107,0.265-0.232,0.346l-0.259,0.157l0.27,0.157c0.145,0.103,0.221,0.265,0.221,0.438
				c0,0.124-0.033,0.227-0.097,0.318c-0.103,0.146-0.265,0.227-0.432,0.227c-0.125,0-0.233-0.038-0.325-0.108l-0.141-0.081v0.21
				c0,0.151-0.054,0.282-0.157,0.384c-0.107,0.108-0.237,0.163-0.384,0.163C379.617,281.081,379.487,281.026,379.373,280.918z
				 M384.119,280.918c-0.107-0.102-0.162-0.227-0.162-0.384v-0.216l-0.157,0.091c-0.091,0.07-0.2,0.103-0.324,0.103
				c-0.173,0-0.33-0.076-0.433-0.222c-0.07-0.091-0.102-0.205-0.102-0.329c0-0.168,0.081-0.33,0.227-0.433l0.27-0.162l-0.26-0.157
				c-0.151-0.086-0.238-0.254-0.238-0.421c0-0.124,0.033-0.238,0.102-0.33c0.092-0.119,0.211-0.194,0.357-0.221
				c0.021-0.006,0.054-0.006,0.092-0.006c0.114,0,0.222,0.033,0.313,0.103l0.151,0.092v-0.211c0-0.308,0.249-0.546,0.557-0.546
				c0.303,0,0.529,0.238,0.529,0.546v0.205l0.135-0.081c0.081-0.07,0.189-0.102,0.313-0.102c0.167,0,0.341,0.086,0.449,0.221
				c0.07,0.092,0.102,0.201,0.102,0.325c0,0.038,0,0.07-0.005,0.086c-0.026,0.151-0.107,0.265-0.232,0.346l-0.259,0.157l0.27,0.157
				c0.145,0.103,0.221,0.265,0.221,0.438c0,0.124-0.033,0.227-0.097,0.318c-0.103,0.146-0.265,0.227-0.432,0.227
				c-0.125,0-0.233-0.038-0.325-0.108l-0.141-0.081v0.21c0,0.151-0.054,0.282-0.157,0.384c-0.107,0.108-0.238,0.163-0.384,0.163
				C384.363,281.081,384.233,281.026,384.119,280.918z M388.866,280.918c-0.107-0.102-0.162-0.227-0.162-0.384v-0.216l-0.157,0.091
				c-0.092,0.07-0.2,0.103-0.324,0.103c-0.173,0-0.33-0.076-0.433-0.222c-0.069-0.091-0.102-0.205-0.102-0.329
				c0-0.168,0.081-0.33,0.227-0.433l0.27-0.162l-0.26-0.157c-0.151-0.086-0.238-0.254-0.238-0.421c0-0.124,0.033-0.238,0.102-0.33
				c0.092-0.119,0.211-0.194,0.357-0.221c0.021-0.006,0.054-0.006,0.091-0.006c0.113,0,0.222,0.033,0.313,0.103l0.151,0.092v-0.211
				c0-0.308,0.249-0.546,0.557-0.546c0.303,0,0.529,0.238,0.529,0.546v0.205l0.135-0.081c0.081-0.07,0.189-0.102,0.313-0.102
				c0.167,0,0.34,0.086,0.449,0.221c0.07,0.092,0.102,0.201,0.102,0.325c0,0.038,0,0.07-0.005,0.086
				c-0.026,0.151-0.108,0.265-0.232,0.346l-0.259,0.157l0.27,0.157c0.145,0.103,0.221,0.265,0.221,0.438
				c0,0.124-0.033,0.227-0.097,0.318c-0.103,0.146-0.265,0.227-0.432,0.227c-0.125,0-0.233-0.038-0.325-0.108l-0.141-0.081v0.21
				c0,0.151-0.054,0.282-0.157,0.384c-0.107,0.108-0.238,0.163-0.384,0.163C389.11,281.081,388.98,281.026,388.866,280.918z"/>
			<path style="fill:#FA716F;" d="M398.889,312.375h-47.779c-3.777,0-6.839-3.062-6.839-6.839l0,0c0-3.777,3.062-6.839,6.839-6.839
				h47.779c3.777,0,6.839,3.062,6.839,6.839l0,0C405.728,309.314,402.666,312.375,398.889,312.375z"/>
		</g>
		<g>
			
				<ellipse transform="matrix(0.9051 -0.4252 0.4252 0.9051 -35.352 175.2967)" style="fill:#6CA8F7;" cx="375" cy="166.839" rx="31.091" ry="31.091"/>
			<path style="fill:#FFFFFF;" d="M385.415,152.848c0,5.752-4.663,10.416-10.415,10.416c-5.752,0-10.415-4.663-10.415-10.416
				c0-5.752,4.663-10.415,10.415-10.415C380.752,142.433,385.415,147.096,385.415,152.848z M375,166.839
				c-9.043,0-17.267,3.424-23.518,9.009c3.629,9.465,12.776,16.197,23.518,16.197c10.742,0,19.889-6.732,23.518-16.197
				C392.266,170.263,384.043,166.839,375,166.839z"/>
		</g>
	</g>
	<g>
		<path style="fill:#001A2D;" d="M363.304,331.571h-69.981v52.615c0,0.009,0.001,0.017,0.001,0.026h69.98c3.313,0,6-2.686,6-6
			V337.57C369.303,334.257,366.617,331.571,363.304,331.571z"/>
		<path style="fill:#04467A;" d="M366.243,328.632H243.206c-3.313,0-5.999,2.686-5.999,6v40.642c0,3.313,2.686,6,5.999,6h123.037
			c3.313,0,5.999-2.686,5.999-6v-40.642C372.242,331.318,369.556,328.632,366.243,328.632z"/>
		<path style="fill:#2A628F;" d="M310.088,348.414c0-0.619,0.502-1.121,1.121-1.121h34.433c0.619,0,1.121,0.502,1.121,1.121v0.175
			c0,0.619-0.502,1.121-1.121,1.121h-34.433c-0.619,0-1.121-0.502-1.121-1.121V348.414z"/>
		<path style="fill:#2A628F;" d="M310.088,366.741c0-0.619,0.502-1.121,1.121-1.121h34.433c0.619,0,1.121,0.502,1.121,1.121v0.175
			c0,0.619-0.502,1.121-1.121,1.121h-34.433c-0.619,0-1.121-0.502-1.121-1.121V366.741z"/>
		<rect x="248.341" y="339.775" style="fill:#FFFFFF;" width="36.064" height="30.485"/>
		<path style="fill:#6CA8F7;" d="M300.285,368.678c-2.892,0-5.236-2.344-5.236-5.236s2.344-5.236,5.236-5.236
			c2.892,0,5.236,2.344,5.236,5.236S303.177,368.678,300.285,368.678z"/>
		<path style="fill:#6CA8F7;" d="M300.285,350.35c-2.892,0-5.236-2.344-5.236-5.236s2.344-5.236,5.236-5.236
			c2.892,0,5.236,2.344,5.236,5.236S303.177,350.35,300.285,350.35z"/>
		<path style="fill:#6CA8F7;" d="M349.208,366.829c0-0.668,0.541-1.209,1.209-1.209h3.451c0.668,0,1.209,0.541,1.209,1.209
			c0,0.668-0.541,1.209-1.209,1.209h-3.451C349.749,368.037,349.208,367.496,349.208,366.829z"/>
		<path style="fill:#2A628F;" d="M363.029,360.882c0,0.619-0.502,1.121-1.121,1.121h-50.698c-0.619,0-1.121-0.502-1.121-1.121
			v-0.175c0-0.619,0.502-1.121,1.121-1.121h50.698c0.619,0,1.121,0.502,1.121,1.121V360.882z"/>
		<path style="fill:#6CA8F7;" d="M349.208,348.501c0-0.668,0.541-1.209,1.209-1.209h3.451c0.668,0,1.209,0.541,1.209,1.209
			s-0.541,1.209-1.209,1.209h-3.451C349.749,349.71,349.208,349.169,349.208,348.501z"/>
		<path style="fill:#2A628F;" d="M363.029,342.555c0,0.619-0.502,1.121-1.121,1.121h-50.698c-0.619,0-1.121-0.502-1.121-1.121
			v-0.175c0-0.619,0.502-1.121,1.121-1.121h50.698c0.619,0,1.121,0.502,1.121,1.121V342.555z"/>
	</g>
	<g>
		<path style="fill:#001A2D;" d="M456.682,104.37v2.912h-22.455c-2.485,0-4.501-2.016-4.501-4.511V84.838h7.424
			C447.935,84.838,456.682,93.586,456.682,104.37z"/>
		<path style="fill:#6CA8F7;" d="M436.205,105.203h46.138c2.363,0,4.279-1.916,4.279-4.279V74.699c0-2.363-1.916-4.279-4.279-4.279
			h-46.138c-2.363,0-4.279,1.916-4.279,4.279v26.226C431.926,103.288,433.842,105.203,436.205,105.203z"/>
		<circle style="fill:#FA716F;" cx="486.621" cy="71.08" r="6.6"/>
		
			<polyline style="fill:none;stroke:#16609D;stroke-width:2.0367;stroke-linecap:round;stroke-linejoin:round;stroke-miterlimit:10;" points="
			478.441,77.68 459.273,89.742 440.106,77.68 		"/>
		
			<line style="fill:none;stroke:#16609D;stroke-width:2.0367;stroke-linecap:round;stroke-linejoin:round;stroke-miterlimit:10;" x1="471.912" y1="91.779" x2="478.441" y2="96.792"/>
		
			<line style="fill:none;stroke:#16609D;stroke-width:2.0367;stroke-linecap:round;stroke-linejoin:round;stroke-miterlimit:10;" x1="440.106" y1="96.792" x2="446.635" y2="91.779"/>
	</g>
	<g>
		<path style="fill:#FA716F;" d="M605.854,166.661h-34.396c-1.948,0-3.526-1.579-3.526-3.526v-20.982
			c0-1.948,1.579-3.526,3.526-3.526h34.396c1.948,0,3.526,1.579,3.526,3.526v20.982C609.38,165.083,607.802,166.661,605.854,166.661
			z"/>
		<g>
			<polygon style="fill:#FFFFFF;" points="593.671,152.644 589.361,155.133 585.051,157.621 585.051,152.644 585.051,147.667 
				589.361,150.156 			"/>
		</g>
	</g>
	<g>
		<path style="fill:#001A2D;" d="M599.289,291.014c0-0.531-0.032-1.054-0.087-1.57l-8.613,14.919
			C595.711,302.095,599.289,296.976,599.289,291.014z"/>
		
			<ellipse transform="matrix(0.1399 -0.9902 0.9902 0.1399 219.7524 831.1788)" style="fill:#FFD852;" cx="588.315" cy="289.097" rx="12.686" ry="12.686"/>
		<g>
			<path style="fill:#FFFFFF;" d="M589.516,294.192v2.227h-1.936v-2.241c-1.369-0.19-2.694-0.757-3.669-1.558l1.034-2.083
				c1.048,0.904,2.635,1.544,3.698,1.544c0.786,0,1.281-0.291,1.281-0.83c0-1.732-5.372-0.684-5.372-4.295
				c0-1.616,1.165-2.737,3.028-3.043v-2.14h1.936v2.125c1.194,0.131,2.33,0.539,3.188,1.092l-1.004,2.111
				c-1.077-0.611-2.446-1.092-3.29-1.092c-0.641,0-1.063,0.233-1.063,0.699c0,1.689,5.372,0.728,5.372,4.397
				C592.719,292.897,591.35,293.945,589.516,294.192z"/>
		</g>
	</g>
	<g>
		<path style="fill:#C2EEFF;" d="M119.487,220.057c-0.037-0.088-0.08-0.167-0.131-0.248c-0.051-0.08-0.109-0.153-0.175-0.218
			c-0.065-0.066-0.146-0.131-0.218-0.182c-0.08-0.051-0.168-0.095-0.255-0.131c-0.08-0.037-0.175-0.066-0.269-0.081
			c-0.182-0.036-0.372-0.036-0.561,0c-0.088,0.015-0.182,0.044-0.263,0.081c-0.087,0.036-0.175,0.08-0.255,0.131
			c-0.073,0.051-0.153,0.117-0.218,0.182c-0.066,0.065-0.124,0.139-0.175,0.218c-0.051,0.08-0.095,0.16-0.131,0.248
			c-0.036,0.087-0.066,0.175-0.088,0.27c-0.015,0.095-0.022,0.189-0.022,0.285c0,0.087,0.007,0.182,0.022,0.277
			c0.022,0.088,0.051,0.182,0.088,0.27c0.036,0.087,0.08,0.167,0.131,0.248c0.051,0.08,0.109,0.153,0.182,0.218
			c0.262,0.263,0.634,0.423,1.013,0.423c0.379,0,0.751-0.16,1.02-0.423c0.066-0.065,0.124-0.139,0.175-0.218
			c0.051-0.08,0.095-0.161,0.131-0.248c0.036-0.088,0.066-0.182,0.08-0.27c0.022-0.095,0.029-0.19,0.029-0.277
			c0-0.095-0.007-0.19-0.029-0.285C119.552,220.232,119.523,220.145,119.487,220.057z"/>
		<path style="fill:#C2EEFF;" d="M132.932,220.057c-0.036-0.088-0.08-0.167-0.131-0.248c-0.051-0.08-0.11-0.153-0.175-0.218
			c-0.065-0.066-0.146-0.131-0.218-0.182c-0.08-0.051-0.168-0.095-0.255-0.131c-0.08-0.037-0.175-0.066-0.262-0.081
			c-0.474-0.095-0.969,0.058-1.305,0.394c-0.066,0.065-0.124,0.139-0.175,0.218c-0.051,0.08-0.095,0.16-0.131,0.248
			c-0.037,0.087-0.066,0.175-0.08,0.27c-0.022,0.095-0.029,0.189-0.029,0.285c0,0.087,0.008,0.182,0.029,0.277
			c0.015,0.088,0.044,0.182,0.08,0.27c0.036,0.087,0.08,0.167,0.131,0.248c0.051,0.08,0.109,0.153,0.175,0.218
			c0.269,0.263,0.641,0.423,1.02,0.423c0.379,0,0.75-0.16,1.013-0.423c0.073-0.065,0.131-0.139,0.182-0.218
			c0.051-0.08,0.095-0.161,0.131-0.248c0.037-0.088,0.066-0.182,0.08-0.27c0.022-0.095,0.029-0.19,0.029-0.277
			c0-0.095-0.007-0.19-0.029-0.285C132.998,220.232,132.969,220.145,132.932,220.057z"/>
		<path style="fill:#C2EEFF;" d="M146.379,220.057c-0.037-0.088-0.08-0.167-0.131-0.248c-0.051-0.08-0.109-0.153-0.182-0.218
			c-0.328-0.335-0.831-0.488-1.297-0.394c-0.088,0.015-0.182,0.044-0.27,0.081c-0.088,0.036-0.168,0.08-0.248,0.131
			c-0.08,0.051-0.153,0.117-0.219,0.182c-0.066,0.065-0.124,0.139-0.175,0.218c-0.051,0.08-0.095,0.16-0.131,0.248
			c-0.036,0.087-0.065,0.175-0.08,0.27c-0.022,0.095-0.029,0.189-0.029,0.285c0,0.087,0.007,0.182,0.029,0.277
			c0.015,0.088,0.044,0.182,0.08,0.27c0.037,0.087,0.08,0.167,0.131,0.248c0.051,0.08,0.109,0.153,0.175,0.218
			c0.27,0.263,0.642,0.423,1.02,0.423c0.379,0,0.751-0.16,1.013-0.423c0.066-0.065,0.131-0.139,0.182-0.218
			c0.051-0.08,0.095-0.161,0.131-0.248c0.036-0.088,0.065-0.182,0.08-0.27c0.022-0.095,0.029-0.19,0.029-0.277
			c0-0.095-0.007-0.19-0.029-0.285C146.444,220.232,146.415,220.145,146.379,220.057z"/>
		<path style="fill:#C2EEFF;" d="M159.824,220.057c-0.036-0.088-0.08-0.167-0.131-0.248c-0.051-0.08-0.109-0.153-0.182-0.218
			c-0.066-0.066-0.138-0.131-0.219-0.182c-0.073-0.051-0.16-0.095-0.248-0.131c-0.088-0.037-0.175-0.066-0.27-0.081
			c-0.182-0.036-0.372-0.036-0.561,0c-0.087,0.015-0.182,0.044-0.269,0.081c-0.087,0.036-0.168,0.08-0.248,0.131
			c-0.08,0.051-0.153,0.117-0.218,0.182c-0.065,0.065-0.124,0.139-0.175,0.218c-0.051,0.08-0.102,0.16-0.131,0.248
			c-0.037,0.087-0.066,0.175-0.088,0.27c-0.015,0.095-0.029,0.189-0.029,0.285c0,0.087,0.015,0.182,0.029,0.277
			c0.022,0.088,0.051,0.182,0.088,0.27c0.036,0.087,0.08,0.167,0.131,0.248c0.051,0.08,0.11,0.153,0.175,0.218
			c0.27,0.263,0.641,0.423,1.02,0.423c0.379,0,0.751-0.16,1.013-0.423c0.066-0.065,0.131-0.139,0.182-0.218
			c0.051-0.08,0.095-0.161,0.131-0.248c0.037-0.088,0.066-0.182,0.08-0.27c0.022-0.095,0.029-0.19,0.029-0.277
			c0-0.095-0.008-0.19-0.029-0.285C159.89,220.232,159.861,220.145,159.824,220.057z"/>
		<path style="fill:#C2EEFF;" d="M173.27,220.057c-0.036-0.088-0.08-0.167-0.131-0.248c-0.051-0.08-0.116-0.153-0.182-0.218
			c-0.328-0.335-0.831-0.488-1.297-0.394c-0.088,0.015-0.182,0.044-0.27,0.081c-0.088,0.036-0.168,0.08-0.248,0.131
			c-0.08,0.051-0.153,0.117-0.219,0.182c-0.065,0.065-0.124,0.139-0.175,0.218c-0.051,0.08-0.095,0.16-0.131,0.248
			c-0.036,0.087-0.065,0.175-0.087,0.27c-0.015,0.095-0.029,0.189-0.029,0.285c0,0.087,0.015,0.182,0.029,0.277
			c0.022,0.088,0.051,0.182,0.087,0.27c0.037,0.087,0.08,0.167,0.131,0.248c0.051,0.08,0.109,0.153,0.175,0.218
			c0.27,0.263,0.642,0.423,1.021,0.423s0.751-0.16,1.013-0.423c0.066-0.065,0.131-0.139,0.182-0.218
			c0.051-0.08,0.095-0.161,0.131-0.248c0.036-0.088,0.065-0.182,0.08-0.27c0.022-0.095,0.029-0.19,0.029-0.277
			c0-0.095-0.007-0.19-0.029-0.285C173.336,220.232,173.307,220.145,173.27,220.057z"/>
		<path style="fill:#C2EEFF;" d="M184.056,221.158c0.037,0.087,0.08,0.167,0.139,0.248c0.051,0.08,0.109,0.153,0.175,0.218
			c0.27,0.263,0.641,0.423,1.02,0.423c0.088,0,0.182-0.015,0.277-0.029c0.095-0.022,0.182-0.051,0.269-0.088
			c0.087-0.029,0.168-0.08,0.248-0.131c0.08-0.051,0.153-0.11,0.219-0.175c0.066-0.065,0.131-0.139,0.182-0.218
			c0.051-0.08,0.095-0.161,0.131-0.248c0.036-0.088,0.065-0.182,0.08-0.27c0.022-0.095,0.029-0.19,0.029-0.277
			c0-0.095-0.008-0.19-0.029-0.285c-0.015-0.095-0.044-0.182-0.08-0.27c-0.037-0.088-0.08-0.167-0.131-0.248
			c-0.051-0.08-0.117-0.153-0.182-0.218c-0.066-0.066-0.138-0.131-0.219-0.182c-0.073-0.051-0.16-0.095-0.248-0.131
			c-0.087-0.037-0.175-0.066-0.269-0.081c-0.467-0.095-0.962,0.058-1.297,0.394c-0.066,0.065-0.124,0.139-0.175,0.218
			c-0.058,0.08-0.102,0.16-0.139,0.248c-0.036,0.087-0.058,0.175-0.08,0.27c-0.015,0.095-0.029,0.189-0.029,0.285
			c0,0.087,0.014,0.182,0.029,0.277C183.998,220.976,184.02,221.071,184.056,221.158z"/>
		<path style="fill:#C2EEFF;" d="M119.487,233.503c-0.037-0.088-0.08-0.167-0.131-0.248c-0.051-0.081-0.109-0.153-0.175-0.219
			c-0.539-0.539-1.501-0.539-2.033,0c-0.073,0.065-0.131,0.138-0.182,0.219c-0.051,0.08-0.095,0.16-0.131,0.248
			c-0.036,0.088-0.066,0.175-0.08,0.27c-0.022,0.088-0.029,0.182-0.029,0.277c0,0.379,0.153,0.751,0.423,1.021
			c0.065,0.065,0.138,0.124,0.218,0.175c0.073,0.051,0.16,0.095,0.248,0.131c0.088,0.036,0.175,0.065,0.263,0.088
			c0.095,0.014,0.189,0.029,0.284,0.029c0.095,0,0.19-0.015,0.284-0.029c0.088-0.022,0.182-0.051,0.27-0.088
			c0.08-0.036,0.168-0.08,0.248-0.131c0.073-0.051,0.146-0.11,0.218-0.175c0.066-0.066,0.124-0.139,0.175-0.219
			c0.051-0.08,0.095-0.161,0.131-0.248c0.036-0.087,0.066-0.182,0.087-0.269c0.015-0.095,0.022-0.19,0.022-0.285
			c0-0.095-0.007-0.182-0.022-0.277C119.552,233.678,119.523,233.591,119.487,233.503z"/>
		<path style="fill:#C2EEFF;" d="M132.932,233.503c-0.036-0.088-0.08-0.167-0.131-0.248c-0.051-0.081-0.11-0.153-0.175-0.219
			c-0.065-0.065-0.146-0.132-0.218-0.182c-0.08-0.051-0.168-0.095-0.255-0.132c-0.08-0.036-0.175-0.066-0.262-0.08
			c-0.474-0.095-0.969,0.058-1.305,0.394c-0.066,0.065-0.124,0.138-0.175,0.219c-0.051,0.08-0.095,0.16-0.131,0.248
			c-0.037,0.088-0.066,0.175-0.088,0.27c-0.015,0.095-0.022,0.182-0.022,0.277c0,0.095,0.008,0.189,0.022,0.285
			c0.022,0.087,0.051,0.182,0.088,0.269c0.036,0.088,0.08,0.168,0.131,0.248c0.051,0.08,0.109,0.153,0.175,0.219
			c0.065,0.065,0.146,0.124,0.218,0.175c0.08,0.051,0.168,0.095,0.248,0.131c0.087,0.036,0.182,0.065,0.27,0.088
			c0.095,0.014,0.19,0.029,0.284,0.029c0.095,0,0.189-0.015,0.284-0.029c0.087-0.022,0.182-0.051,0.262-0.088
			c0.088-0.036,0.175-0.08,0.248-0.131c0.08-0.051,0.153-0.11,0.219-0.175c0.269-0.27,0.422-0.641,0.422-1.021
			c0-0.095-0.007-0.189-0.029-0.277C132.998,233.678,132.969,233.591,132.932,233.503z"/>
		<path style="fill:#C2EEFF;" d="M146.379,233.503c-0.037-0.088-0.08-0.167-0.131-0.248c-0.051-0.081-0.109-0.153-0.175-0.219
			c-0.335-0.335-0.838-0.488-1.304-0.394c-0.088,0.014-0.182,0.043-0.27,0.08c-0.08,0.037-0.168,0.08-0.248,0.132
			c-0.08,0.05-0.153,0.117-0.219,0.182c-0.066,0.065-0.124,0.138-0.175,0.219c-0.051,0.08-0.095,0.16-0.131,0.248
			c-0.036,0.088-0.065,0.175-0.08,0.27c-0.022,0.088-0.029,0.182-0.029,0.277c0,0.379,0.153,0.751,0.423,1.021
			c0.262,0.27,0.634,0.423,1.013,0.423c0.095,0,0.19-0.015,0.277-0.029c0.095-0.022,0.182-0.051,0.269-0.088
			c0.087-0.036,0.175-0.08,0.255-0.131c0.073-0.051,0.146-0.11,0.219-0.175c0.066-0.066,0.124-0.139,0.175-0.219
			c0.051-0.08,0.095-0.161,0.131-0.248c0.036-0.087,0.065-0.182,0.08-0.269c0.022-0.095,0.029-0.19,0.029-0.285
			c0-0.095-0.007-0.182-0.029-0.277C146.444,233.678,146.415,233.591,146.379,233.503z"/>
		<path style="fill:#C2EEFF;" d="M159.824,233.503c-0.036-0.088-0.08-0.167-0.131-0.248c-0.051-0.081-0.117-0.153-0.182-0.219
			c-0.066-0.065-0.138-0.132-0.219-0.182c-0.073-0.051-0.16-0.095-0.248-0.132c-0.088-0.036-0.175-0.066-0.27-0.08
			c-0.466-0.095-0.962,0.058-1.297,0.394c-0.065,0.065-0.124,0.138-0.175,0.219c-0.051,0.08-0.095,0.16-0.131,0.248
			c-0.037,0.088-0.066,0.175-0.088,0.27c-0.015,0.095-0.022,0.182-0.022,0.277c0,0.095,0.007,0.189,0.022,0.285
			c0.022,0.087,0.051,0.182,0.088,0.269c0.036,0.088,0.08,0.168,0.131,0.248c0.051,0.08,0.11,0.153,0.175,0.219
			c0.065,0.065,0.146,0.124,0.218,0.175c0.08,0.051,0.161,0.095,0.248,0.131c0.087,0.036,0.182,0.065,0.269,0.088
			c0.095,0.014,0.19,0.029,0.284,0.029c0.095,0,0.19-0.015,0.277-0.029c0.095-0.022,0.182-0.051,0.27-0.088
			c0.088-0.036,0.175-0.08,0.248-0.131c0.08-0.051,0.153-0.11,0.219-0.175c0.066-0.066,0.131-0.139,0.182-0.219
			c0.051-0.08,0.095-0.161,0.131-0.248c0.037-0.087,0.066-0.182,0.08-0.269c0.022-0.095,0.029-0.19,0.029-0.285
			c0-0.095-0.008-0.182-0.029-0.277C159.89,233.678,159.861,233.591,159.824,233.503z"/>
		<path style="fill:#C2EEFF;" d="M173.27,233.503c-0.036-0.088-0.08-0.167-0.131-0.248c-0.051-0.081-0.109-0.153-0.182-0.219
			c-0.066-0.065-0.139-0.132-0.219-0.182c-0.073-0.051-0.16-0.095-0.248-0.132c-0.087-0.036-0.175-0.066-0.27-0.08
			c-0.467-0.095-0.962,0.058-1.298,0.394c-0.065,0.065-0.124,0.138-0.175,0.219c-0.051,0.08-0.102,0.16-0.131,0.248
			c-0.036,0.088-0.065,0.175-0.087,0.27c-0.015,0.095-0.029,0.182-0.029,0.277c0,0.095,0.015,0.189,0.029,0.285
			c0.022,0.087,0.051,0.182,0.087,0.269c0.029,0.088,0.08,0.168,0.131,0.248c0.051,0.08,0.109,0.153,0.175,0.219
			c0.066,0.065,0.139,0.124,0.219,0.175c0.08,0.051,0.16,0.095,0.248,0.131c0.088,0.036,0.182,0.065,0.27,0.088
			c0.095,0.014,0.189,0.029,0.284,0.029c0.095,0,0.189-0.015,0.277-0.029c0.095-0.022,0.182-0.051,0.27-0.088
			c0.087-0.036,0.175-0.08,0.248-0.131c0.08-0.051,0.153-0.11,0.219-0.175c0.27-0.27,0.423-0.641,0.423-1.021
			c0-0.095-0.007-0.189-0.029-0.277C173.336,233.678,173.307,233.591,173.27,233.503z"/>
		<path style="fill:#C2EEFF;" d="M186.716,233.503c-0.037-0.088-0.08-0.167-0.131-0.248c-0.051-0.081-0.117-0.153-0.182-0.219
			c-0.328-0.335-0.831-0.488-1.297-0.394c-0.088,0.014-0.182,0.043-0.27,0.08c-0.087,0.037-0.168,0.08-0.248,0.132
			c-0.08,0.05-0.153,0.117-0.218,0.182c-0.066,0.065-0.124,0.138-0.175,0.219c-0.058,0.08-0.102,0.16-0.139,0.248
			c-0.036,0.088-0.058,0.175-0.08,0.27c-0.015,0.095-0.029,0.182-0.029,0.277c0,0.379,0.153,0.751,0.423,1.021
			s0.641,0.423,1.02,0.423c0.088,0,0.182-0.015,0.277-0.029c0.095-0.022,0.182-0.051,0.269-0.088
			c0.087-0.036,0.175-0.08,0.248-0.131c0.08-0.051,0.153-0.11,0.219-0.175c0.066-0.066,0.131-0.139,0.182-0.219
			c0.051-0.08,0.095-0.161,0.131-0.248c0.036-0.087,0.065-0.182,0.08-0.269c0.022-0.095,0.029-0.19,0.029-0.285
			c0-0.095-0.008-0.182-0.029-0.277C186.782,233.678,186.753,233.591,186.716,233.503z"/>
		<path style="fill:#C2EEFF;" d="M119.487,246.949c-0.037-0.087-0.08-0.175-0.131-0.248c-0.051-0.08-0.109-0.153-0.175-0.218
			c-0.073-0.073-0.146-0.132-0.218-0.182c-0.08-0.051-0.168-0.095-0.248-0.132c-0.088-0.036-0.182-0.065-0.27-0.08
			c-0.189-0.037-0.379-0.037-0.568,0c-0.088,0.014-0.182,0.043-0.27,0.08c-0.08,0.036-0.168,0.08-0.248,0.132
			c-0.073,0.051-0.146,0.109-0.211,0.182c-0.073,0.065-0.131,0.138-0.182,0.218c-0.051,0.073-0.095,0.16-0.131,0.248
			c-0.036,0.088-0.066,0.175-0.08,0.27c-0.022,0.088-0.029,0.182-0.029,0.277c0,0.095,0.007,0.189,0.029,0.284
			c0.015,0.088,0.044,0.182,0.08,0.27c0.036,0.087,0.08,0.168,0.131,0.248c0.051,0.08,0.109,0.153,0.182,0.219
			c0.262,0.262,0.634,0.415,1.013,0.415c0.095,0,0.19-0.007,0.284-0.021c0.088-0.022,0.182-0.051,0.27-0.088
			c0.08-0.037,0.168-0.08,0.248-0.132c0.073-0.05,0.146-0.109,0.218-0.174c0.066-0.066,0.124-0.139,0.175-0.219
			c0.051-0.08,0.095-0.16,0.131-0.248c0.036-0.088,0.066-0.182,0.087-0.27c0.015-0.095,0.022-0.189,0.022-0.284
			c0-0.095-0.007-0.189-0.022-0.277C119.552,247.125,119.523,247.037,119.487,246.949z"/>
		<path style="fill:#C2EEFF;" d="M132.932,246.949c-0.036-0.087-0.08-0.175-0.131-0.248c-0.051-0.08-0.11-0.153-0.182-0.218
			c-0.066-0.073-0.139-0.132-0.211-0.182c-0.08-0.051-0.168-0.095-0.248-0.132c-0.087-0.036-0.182-0.065-0.269-0.08
			c-0.19-0.037-0.379-0.037-0.569,0c-0.088,0.014-0.182,0.043-0.262,0.08c-0.088,0.036-0.175,0.08-0.255,0.132
			c-0.073,0.051-0.146,0.109-0.218,0.182c-0.066,0.065-0.124,0.138-0.175,0.218c-0.051,0.073-0.095,0.16-0.131,0.248
			c-0.037,0.088-0.066,0.175-0.088,0.27c-0.015,0.088-0.022,0.182-0.022,0.277c0,0.095,0.008,0.189,0.022,0.284
			c0.022,0.088,0.051,0.182,0.088,0.27c0.036,0.087,0.08,0.168,0.131,0.248c0.051,0.08,0.109,0.153,0.175,0.219
			c0.073,0.065,0.146,0.124,0.218,0.174c0.08,0.051,0.168,0.095,0.255,0.132c0.08,0.036,0.175,0.066,0.262,0.088
			c0.095,0.014,0.19,0.021,0.284,0.021c0.379,0,0.75-0.153,1.013-0.415c0.073-0.066,0.131-0.139,0.182-0.219
			c0.051-0.08,0.095-0.16,0.131-0.248c0.037-0.088,0.066-0.182,0.08-0.27c0.022-0.095,0.029-0.189,0.029-0.284
			c0-0.095-0.007-0.189-0.029-0.277C132.998,247.125,132.969,247.037,132.932,246.949z"/>
		<path style="fill:#C2EEFF;" d="M146.379,246.949c-0.037-0.087-0.08-0.175-0.131-0.248c-0.051-0.08-0.109-0.153-0.175-0.218
			c-0.066-0.073-0.146-0.132-0.219-0.182c-0.08-0.051-0.168-0.095-0.255-0.132c-0.08-0.036-0.175-0.065-0.262-0.08
			c-0.189-0.037-0.379-0.037-0.568,0c-0.088,0.014-0.182,0.043-0.27,0.08c-0.08,0.036-0.168,0.08-0.248,0.132
			c-0.073,0.051-0.153,0.109-0.219,0.182c-0.066,0.065-0.124,0.138-0.175,0.218c-0.051,0.073-0.095,0.16-0.131,0.248
			c-0.036,0.088-0.065,0.175-0.087,0.27c-0.015,0.088-0.029,0.182-0.029,0.277c0,0.095,0.015,0.189,0.029,0.284
			c0.022,0.088,0.051,0.182,0.087,0.27c0.037,0.087,0.08,0.168,0.131,0.248c0.051,0.08,0.109,0.153,0.175,0.219
			c0.066,0.065,0.146,0.124,0.219,0.174c0.08,0.051,0.168,0.095,0.248,0.132c0.088,0.036,0.182,0.066,0.27,0.088
			c0.095,0.014,0.189,0.021,0.284,0.021c0.095,0,0.19-0.007,0.277-0.021c0.095-0.022,0.182-0.051,0.269-0.088
			c0.087-0.037,0.175-0.08,0.248-0.132c0.08-0.05,0.153-0.109,0.219-0.174c0.066-0.066,0.131-0.139,0.182-0.219
			c0.051-0.08,0.095-0.16,0.131-0.248c0.036-0.088,0.065-0.182,0.08-0.27c0.022-0.095,0.029-0.189,0.029-0.284
			c0-0.095-0.007-0.189-0.029-0.277C146.444,247.125,146.415,247.037,146.379,246.949z"/>
		<path style="fill:#C2EEFF;" d="M159.824,246.949c-0.036-0.087-0.08-0.175-0.131-0.248c-0.051-0.08-0.109-0.153-0.175-0.218
			c-0.073-0.073-0.146-0.132-0.226-0.182c-0.073-0.051-0.16-0.095-0.248-0.132c-0.088-0.036-0.175-0.065-0.27-0.08
			c-0.182-0.037-0.372-0.037-0.561,0c-0.087,0.014-0.182,0.043-0.269,0.08c-0.087,0.036-0.168,0.08-0.248,0.132
			c-0.08,0.051-0.153,0.109-0.218,0.182c-0.065,0.065-0.124,0.138-0.175,0.218c-0.051,0.073-0.102,0.16-0.131,0.248
			c-0.037,0.088-0.066,0.175-0.088,0.27c-0.015,0.088-0.029,0.182-0.029,0.277c0,0.095,0.015,0.189,0.029,0.284
			c0.022,0.088,0.051,0.182,0.088,0.27c0.029,0.087,0.08,0.168,0.131,0.248c0.051,0.08,0.11,0.153,0.175,0.219
			c0.065,0.065,0.139,0.124,0.218,0.174c0.08,0.051,0.161,0.095,0.248,0.132c0.087,0.036,0.182,0.066,0.269,0.088
			c0.095,0.014,0.19,0.021,0.284,0.021c0.379,0,0.751-0.153,1.013-0.415c0.066-0.066,0.131-0.139,0.182-0.219
			c0.051-0.08,0.095-0.16,0.131-0.248c0.037-0.088,0.066-0.182,0.08-0.27c0.022-0.095,0.029-0.189,0.029-0.284
			c0-0.095-0.008-0.189-0.029-0.277C159.89,247.125,159.861,247.037,159.824,246.949z"/>
		<path style="fill:#C2EEFF;" d="M173.27,246.949c-0.036-0.087-0.08-0.175-0.131-0.248c-0.051-0.08-0.116-0.153-0.182-0.218
			c-0.066-0.073-0.139-0.132-0.219-0.182c-0.073-0.051-0.16-0.095-0.248-0.132c-0.087-0.036-0.175-0.065-0.27-0.08
			c-0.182-0.037-0.372-0.037-0.561,0c-0.088,0.014-0.182,0.043-0.27,0.08c-0.088,0.036-0.168,0.08-0.248,0.132
			c-0.08,0.051-0.153,0.109-0.219,0.182c-0.065,0.065-0.124,0.138-0.175,0.218c-0.051,0.073-0.095,0.16-0.131,0.248
			c-0.036,0.088-0.065,0.175-0.087,0.27c-0.015,0.088-0.022,0.182-0.022,0.277c0,0.095,0.007,0.189,0.022,0.284
			c0.022,0.088,0.051,0.182,0.087,0.27c0.037,0.087,0.08,0.168,0.131,0.248c0.051,0.08,0.109,0.153,0.175,0.219
			c0.066,0.065,0.139,0.124,0.219,0.174c0.08,0.051,0.16,0.095,0.248,0.132c0.088,0.036,0.182,0.066,0.27,0.088
			c0.095,0.014,0.189,0.021,0.284,0.021c0.095,0,0.189-0.007,0.277-0.021c0.095-0.022,0.182-0.051,0.27-0.088
			c0.087-0.037,0.175-0.08,0.248-0.132c0.08-0.05,0.153-0.109,0.219-0.174c0.066-0.066,0.131-0.139,0.182-0.219
			c0.051-0.08,0.095-0.16,0.131-0.248c0.036-0.088,0.065-0.182,0.08-0.27c0.022-0.095,0.029-0.189,0.029-0.284
			c0-0.095-0.007-0.189-0.029-0.277C173.336,247.125,173.307,247.037,173.27,246.949z"/>
		<path style="fill:#C2EEFF;" d="M186.716,246.949c-0.037-0.087-0.08-0.175-0.131-0.248c-0.051-0.08-0.117-0.153-0.182-0.218
			c-0.066-0.073-0.138-0.132-0.219-0.182c-0.073-0.051-0.16-0.095-0.248-0.132c-0.087-0.036-0.175-0.065-0.269-0.08
			c-0.182-0.037-0.372-0.037-0.561,0c-0.095,0.014-0.182,0.043-0.27,0.08c-0.087,0.036-0.168,0.08-0.248,0.132
			c-0.08,0.051-0.153,0.109-0.218,0.182c-0.066,0.065-0.124,0.138-0.175,0.218c-0.058,0.073-0.102,0.16-0.139,0.248
			c-0.029,0.088-0.058,0.175-0.08,0.27c-0.015,0.088-0.029,0.182-0.029,0.277c0,0.095,0.014,0.189,0.029,0.284
			c0.022,0.088,0.051,0.182,0.08,0.27c0.037,0.087,0.08,0.168,0.139,0.248c0.051,0.08,0.109,0.153,0.175,0.219
			c0.065,0.065,0.138,0.124,0.218,0.174c0.08,0.051,0.161,0.095,0.248,0.132c0.088,0.036,0.175,0.066,0.27,0.088
			c0.095,0.014,0.189,0.021,0.284,0.021c0.379,0,0.751-0.153,1.013-0.415c0.066-0.066,0.131-0.139,0.182-0.219
			c0.051-0.08,0.095-0.16,0.131-0.248c0.036-0.088,0.065-0.182,0.08-0.27c0.022-0.095,0.029-0.189,0.029-0.284
			c0-0.095-0.008-0.189-0.029-0.277C186.782,247.125,186.753,247.037,186.716,246.949z"/>
		<path style="fill:#C2EEFF;" d="M119.487,260.396c-0.037-0.088-0.08-0.175-0.131-0.248c-0.051-0.08-0.109-0.153-0.175-0.219
			c-0.539-0.539-1.501-0.539-2.04,0c-0.066,0.066-0.124,0.139-0.175,0.219c-0.051,0.073-0.095,0.16-0.131,0.248
			c-0.036,0.087-0.066,0.175-0.08,0.27c-0.022,0.087-0.029,0.182-0.029,0.277c0,0.095,0.007,0.189,0.029,0.284
			c0.015,0.088,0.044,0.182,0.08,0.27c0.036,0.088,0.08,0.168,0.131,0.248c0.051,0.08,0.109,0.153,0.175,0.219
			c0.27,0.27,0.641,0.423,1.02,0.423c0.379,0,0.751-0.153,1.02-0.423c0.066-0.065,0.124-0.138,0.175-0.219
			c0.051-0.08,0.095-0.16,0.131-0.248c0.036-0.087,0.066-0.182,0.08-0.27c0.022-0.095,0.029-0.189,0.029-0.284
			c0-0.095-0.007-0.189-0.029-0.277C119.552,260.571,119.523,260.483,119.487,260.396z"/>
		<path style="fill:#C2EEFF;" d="M132.932,260.396c-0.036-0.088-0.08-0.175-0.131-0.248c-0.051-0.08-0.11-0.153-0.175-0.219
			c-0.539-0.539-1.501-0.539-2.04,0c-0.066,0.066-0.124,0.139-0.175,0.219c-0.051,0.073-0.095,0.16-0.131,0.248
			c-0.037,0.087-0.066,0.175-0.08,0.27c-0.022,0.087-0.029,0.182-0.029,0.277c0,0.095,0.008,0.189,0.029,0.284
			c0.015,0.088,0.044,0.182,0.08,0.27c0.036,0.088,0.08,0.168,0.131,0.248c0.051,0.08,0.109,0.153,0.175,0.219
			c0.269,0.27,0.641,0.423,1.02,0.423c0.379,0,0.75-0.153,1.02-0.423c0.066-0.065,0.124-0.138,0.175-0.219
			c0.051-0.08,0.095-0.16,0.131-0.248c0.037-0.087,0.066-0.182,0.08-0.27c0.022-0.095,0.029-0.189,0.029-0.284
			c0-0.095-0.007-0.189-0.029-0.277C132.998,260.571,132.969,260.483,132.932,260.396z"/>
		<path style="fill:#C2EEFF;" d="M146.379,260.396c-0.037-0.088-0.08-0.175-0.131-0.248c-0.051-0.08-0.109-0.153-0.175-0.219
			c-0.335-0.335-0.838-0.488-1.304-0.394c-0.088,0.015-0.182,0.044-0.27,0.08c-0.08,0.036-0.168,0.081-0.248,0.131
			c-0.073,0.051-0.153,0.117-0.219,0.182c-0.066,0.066-0.124,0.139-0.175,0.219c-0.051,0.073-0.095,0.16-0.131,0.248
			c-0.036,0.087-0.065,0.175-0.08,0.27c-0.022,0.087-0.029,0.182-0.029,0.277c0,0.095,0.007,0.189,0.029,0.284
			c0.015,0.088,0.044,0.182,0.08,0.27c0.037,0.088,0.08,0.168,0.131,0.248c0.051,0.08,0.109,0.153,0.175,0.219
			c0.27,0.27,0.642,0.423,1.02,0.423c0.095,0,0.19-0.014,0.277-0.029c0.095-0.021,0.182-0.051,0.269-0.08
			c0.087-0.037,0.175-0.088,0.248-0.139c0.08-0.051,0.153-0.109,0.219-0.175c0.066-0.065,0.131-0.138,0.182-0.219
			c0.051-0.08,0.095-0.16,0.131-0.248c0.036-0.087,0.065-0.182,0.08-0.27c0.022-0.095,0.029-0.189,0.029-0.284
			c0-0.095-0.007-0.189-0.029-0.277C146.444,260.571,146.415,260.483,146.379,260.396z"/>
		<path style="fill:#C2EEFF;" d="M159.824,260.396c-0.036-0.088-0.08-0.175-0.131-0.248c-0.051-0.08-0.109-0.153-0.175-0.219
			c-0.539-0.539-1.508-0.539-2.04,0c-0.065,0.066-0.124,0.139-0.175,0.219c-0.051,0.073-0.095,0.16-0.131,0.248
			c-0.037,0.087-0.066,0.175-0.088,0.27c-0.015,0.087-0.022,0.182-0.022,0.277c0,0.095,0.007,0.189,0.022,0.284
			c0.022,0.088,0.051,0.182,0.088,0.27c0.036,0.088,0.08,0.168,0.131,0.248c0.051,0.08,0.11,0.153,0.175,0.219
			c0.27,0.27,0.641,0.423,1.02,0.423c0.379,0,0.751-0.153,1.013-0.423c0.066-0.065,0.131-0.138,0.182-0.219
			c0.051-0.08,0.095-0.16,0.131-0.248c0.037-0.087,0.066-0.182,0.08-0.27c0.022-0.095,0.029-0.189,0.029-0.284
			c0-0.095-0.008-0.189-0.029-0.277C159.89,260.571,159.861,260.483,159.824,260.396z"/>
		<path style="fill:#C2EEFF;" d="M173.27,260.396c-0.036-0.088-0.08-0.175-0.131-0.248c-0.051-0.08-0.116-0.153-0.182-0.219
			c-0.066-0.066-0.139-0.131-0.219-0.182c-0.073-0.05-0.16-0.095-0.248-0.131c-0.087-0.036-0.175-0.065-0.27-0.08
			c-0.467-0.102-0.962,0.058-1.298,0.394c-0.065,0.066-0.124,0.139-0.175,0.219c-0.051,0.073-0.102,0.16-0.138,0.248
			c-0.029,0.087-0.058,0.175-0.08,0.27c-0.015,0.087-0.029,0.182-0.029,0.277c0,0.095,0.015,0.189,0.029,0.284
			c0.022,0.088,0.051,0.182,0.08,0.27c0.036,0.088,0.087,0.168,0.138,0.248c0.051,0.08,0.109,0.153,0.175,0.219
			c0.27,0.27,0.642,0.423,1.021,0.423c0.095,0,0.189-0.014,0.277-0.029c0.095-0.021,0.182-0.051,0.27-0.08
			c0.087-0.037,0.175-0.088,0.248-0.139c0.08-0.051,0.153-0.109,0.219-0.175c0.066-0.065,0.131-0.138,0.182-0.219
			c0.051-0.08,0.095-0.16,0.131-0.248c0.036-0.087,0.065-0.182,0.08-0.27c0.022-0.095,0.029-0.189,0.029-0.284
			c0-0.095-0.007-0.189-0.029-0.277C173.336,260.571,173.307,260.483,173.27,260.396z"/>
		<path style="fill:#C2EEFF;" d="M186.716,260.396c-0.037-0.088-0.08-0.175-0.131-0.248c-0.051-0.08-0.117-0.153-0.182-0.219
			c-0.532-0.539-1.494-0.539-2.033,0c-0.066,0.066-0.124,0.139-0.175,0.219c-0.058,0.073-0.102,0.16-0.139,0.248
			c-0.036,0.087-0.058,0.175-0.08,0.27c-0.015,0.087-0.029,0.182-0.029,0.277c0,0.095,0.014,0.189,0.029,0.284
			c0.022,0.088,0.044,0.182,0.08,0.27c0.037,0.088,0.08,0.168,0.139,0.248c0.051,0.08,0.109,0.153,0.175,0.219
			c0.27,0.27,0.641,0.423,1.02,0.423c0.372,0,0.743-0.153,1.013-0.423c0.066-0.065,0.131-0.138,0.182-0.219
			c0.051-0.08,0.095-0.16,0.131-0.248c0.036-0.087,0.065-0.182,0.08-0.27c0.022-0.095,0.029-0.189,0.029-0.284
			c0-0.095-0.008-0.189-0.029-0.277C186.782,260.571,186.753,260.483,186.716,260.396z"/>
		<path style="fill:#C2EEFF;" d="M119.487,273.842c-0.037-0.088-0.08-0.175-0.131-0.248c-0.051-0.08-0.109-0.153-0.175-0.219
			c-0.532-0.539-1.508-0.539-2.04,0c-0.066,0.065-0.124,0.139-0.175,0.219c-0.051,0.073-0.095,0.161-0.131,0.248
			c-0.036,0.087-0.066,0.174-0.08,0.269c-0.022,0.088-0.029,0.182-0.029,0.278c0,0.379,0.153,0.75,0.415,1.02
			c0.073,0.065,0.146,0.124,0.226,0.175c0.073,0.051,0.16,0.095,0.248,0.131c0.08,0.036,0.175,0.065,0.263,0.08
			c0.095,0.022,0.189,0.029,0.284,0.029c0.095,0,0.19-0.007,0.284-0.029c0.088-0.015,0.182-0.044,0.27-0.08
			c0.08-0.036,0.168-0.08,0.248-0.131c0.073-0.051,0.146-0.11,0.218-0.175c0.263-0.27,0.416-0.641,0.416-1.02
			c0-0.095-0.007-0.19-0.022-0.278C119.552,274.016,119.523,273.928,119.487,273.842z"/>
		<path style="fill:#C2EEFF;" d="M132.932,273.842c-0.036-0.088-0.08-0.175-0.131-0.248c-0.051-0.08-0.11-0.153-0.175-0.219
			c-0.073-0.073-0.146-0.131-0.218-0.182c-0.08-0.051-0.168-0.095-0.255-0.131c-0.08-0.036-0.175-0.066-0.262-0.08
			c-0.474-0.095-0.969,0.058-1.305,0.394c-0.066,0.065-0.124,0.139-0.175,0.219c-0.051,0.073-0.095,0.161-0.131,0.248
			c-0.037,0.087-0.066,0.174-0.088,0.269c-0.015,0.088-0.022,0.182-0.022,0.278c0,0.379,0.153,0.75,0.416,1.02
			c0.269,0.263,0.641,0.416,1.02,0.416c0.095,0,0.189-0.007,0.284-0.029c0.087-0.015,0.182-0.044,0.262-0.08
			c0.088-0.036,0.175-0.08,0.255-0.131c0.073-0.051,0.145-0.11,0.218-0.175c0.262-0.27,0.415-0.641,0.415-1.02
			c0-0.095-0.007-0.19-0.022-0.278C132.998,274.016,132.969,273.928,132.932,273.842z"/>
		<path style="fill:#C2EEFF;" d="M146.379,273.842c-0.037-0.088-0.08-0.175-0.131-0.248c-0.051-0.08-0.109-0.153-0.175-0.219
			c-0.073-0.073-0.146-0.131-0.219-0.182c-0.08-0.051-0.168-0.095-0.255-0.131c-0.08-0.036-0.175-0.066-0.262-0.08
			c-0.466-0.095-0.969,0.058-1.304,0.394c-0.066,0.065-0.124,0.139-0.175,0.219c-0.051,0.073-0.095,0.161-0.131,0.248
			c-0.036,0.087-0.065,0.174-0.087,0.269c-0.015,0.088-0.022,0.182-0.022,0.278c0,0.379,0.153,0.75,0.415,1.02
			c0.073,0.065,0.146,0.124,0.219,0.175c0.08,0.051,0.168,0.095,0.248,0.131c0.088,0.036,0.182,0.065,0.27,0.08
			c0.095,0.022,0.189,0.029,0.284,0.029c0.095,0,0.19-0.007,0.277-0.029c0.095-0.015,0.182-0.044,0.269-0.08
			c0.087-0.036,0.175-0.08,0.248-0.131c0.08-0.051,0.153-0.11,0.219-0.175c0.27-0.27,0.423-0.641,0.423-1.02
			c0-0.095-0.007-0.19-0.029-0.278C146.444,274.016,146.415,273.928,146.379,273.842z"/>
		<path style="fill:#C2EEFF;" d="M159.824,273.842c-0.036-0.088-0.08-0.175-0.131-0.248c-0.051-0.08-0.117-0.153-0.182-0.219
			c-0.328-0.335-0.831-0.488-1.297-0.394c-0.087,0.015-0.182,0.044-0.269,0.08c-0.087,0.036-0.168,0.08-0.248,0.131
			c-0.08,0.051-0.153,0.11-0.218,0.182c-0.065,0.065-0.124,0.139-0.175,0.219c-0.051,0.073-0.095,0.161-0.131,0.248
			c-0.037,0.087-0.066,0.174-0.088,0.269c-0.015,0.088-0.022,0.182-0.022,0.278c0,0.379,0.153,0.75,0.415,1.02
			c0.27,0.263,0.641,0.416,1.02,0.416c0.379,0,0.751-0.153,1.013-0.416c0.27-0.27,0.423-0.641,0.423-1.02
			c0-0.095-0.008-0.19-0.029-0.278C159.89,274.016,159.861,273.928,159.824,273.842z"/>
		<path style="fill:#C2EEFF;" d="M173.27,273.842c-0.036-0.088-0.08-0.175-0.131-0.248c-0.051-0.08-0.116-0.153-0.182-0.219
			c-0.532-0.539-1.501-0.539-2.033,0c-0.065,0.065-0.124,0.139-0.175,0.219c-0.051,0.073-0.102,0.161-0.131,0.248
			c-0.036,0.087-0.065,0.174-0.087,0.269c-0.015,0.088-0.029,0.182-0.029,0.278c0,0.379,0.153,0.75,0.422,1.02
			c0.066,0.065,0.139,0.124,0.219,0.175c0.08,0.051,0.16,0.095,0.248,0.131c0.088,0.036,0.182,0.065,0.27,0.08
			c0.095,0.022,0.189,0.029,0.284,0.029c0.095,0,0.189-0.007,0.277-0.029c0.095-0.015,0.182-0.044,0.27-0.08
			c0.087-0.036,0.175-0.08,0.248-0.131c0.08-0.051,0.153-0.11,0.219-0.175c0.27-0.27,0.423-0.641,0.423-1.02
			c0-0.095-0.007-0.19-0.029-0.278C173.336,274.016,173.307,273.928,173.27,273.842z"/>
		<path style="fill:#C2EEFF;" d="M186.716,273.842c-0.037-0.088-0.08-0.175-0.131-0.248c-0.051-0.08-0.117-0.153-0.182-0.219
			c-0.066-0.073-0.138-0.131-0.219-0.182c-0.073-0.051-0.16-0.095-0.248-0.131c-0.087-0.036-0.175-0.066-0.269-0.08
			c-0.467-0.095-0.962,0.058-1.297,0.394c-0.066,0.065-0.124,0.139-0.175,0.219c-0.058,0.073-0.102,0.161-0.139,0.248
			c-0.029,0.087-0.058,0.174-0.08,0.269c-0.015,0.088-0.029,0.182-0.029,0.278c0,0.379,0.153,0.75,0.423,1.02
			c0.27,0.263,0.641,0.416,1.02,0.416c0.095,0,0.19-0.007,0.277-0.029c0.095-0.015,0.182-0.044,0.269-0.08
			c0.087-0.036,0.168-0.08,0.248-0.131c0.08-0.051,0.153-0.11,0.219-0.175c0.27-0.27,0.423-0.641,0.423-1.02
			c0-0.095-0.008-0.19-0.029-0.278C186.782,274.016,186.753,273.928,186.716,273.842z"/>
	</g>
	<g>
		<path style="fill:#C2EEFF;" d="M566.818,55.799c-0.037-0.088-0.08-0.167-0.131-0.248c-0.051-0.08-0.109-0.153-0.175-0.218
			c-0.065-0.065-0.146-0.131-0.218-0.182c-0.08-0.051-0.168-0.095-0.255-0.131c-0.08-0.037-0.175-0.066-0.269-0.08
			c-0.182-0.036-0.372-0.036-0.561,0c-0.088,0.015-0.182,0.043-0.263,0.08c-0.087,0.036-0.175,0.08-0.255,0.131
			c-0.073,0.051-0.153,0.117-0.219,0.182c-0.065,0.065-0.124,0.139-0.175,0.218c-0.051,0.08-0.095,0.16-0.131,0.248
			c-0.036,0.088-0.065,0.175-0.088,0.27c-0.014,0.095-0.022,0.189-0.022,0.285c0,0.087,0.007,0.182,0.022,0.277
			c0.022,0.088,0.051,0.182,0.088,0.27c0.036,0.087,0.08,0.167,0.131,0.248c0.051,0.08,0.109,0.153,0.182,0.219
			c0.262,0.263,0.634,0.423,1.013,0.423c0.379,0,0.751-0.16,1.02-0.423c0.066-0.066,0.124-0.139,0.175-0.219
			c0.051-0.08,0.095-0.161,0.131-0.248c0.036-0.087,0.065-0.182,0.08-0.27c0.022-0.095,0.029-0.19,0.029-0.277
			c0-0.095-0.008-0.19-0.029-0.285C566.884,55.974,566.855,55.886,566.818,55.799z"/>
		<path style="fill:#C2EEFF;" d="M580.264,55.799c-0.036-0.088-0.08-0.167-0.131-0.248c-0.051-0.08-0.11-0.153-0.175-0.218
			c-0.066-0.065-0.146-0.131-0.219-0.182c-0.08-0.051-0.168-0.095-0.255-0.131c-0.08-0.037-0.175-0.066-0.262-0.08
			c-0.474-0.095-0.969,0.058-1.305,0.394c-0.066,0.065-0.124,0.139-0.175,0.218c-0.051,0.08-0.095,0.16-0.131,0.248
			c-0.037,0.088-0.066,0.175-0.08,0.27c-0.022,0.095-0.029,0.189-0.029,0.285c0,0.087,0.008,0.182,0.029,0.277
			c0.015,0.088,0.044,0.182,0.08,0.27c0.036,0.087,0.08,0.167,0.131,0.248c0.051,0.08,0.109,0.153,0.175,0.219
			c0.269,0.263,0.641,0.423,1.02,0.423c0.379,0,0.75-0.16,1.013-0.423c0.073-0.066,0.131-0.139,0.182-0.219
			c0.051-0.08,0.095-0.161,0.131-0.248c0.037-0.087,0.066-0.182,0.081-0.27c0.022-0.095,0.029-0.19,0.029-0.277
			c0-0.095-0.007-0.19-0.029-0.285C580.33,55.974,580.301,55.886,580.264,55.799z"/>
		<path style="fill:#C2EEFF;" d="M593.71,55.799c-0.037-0.088-0.08-0.167-0.131-0.248c-0.051-0.08-0.109-0.153-0.182-0.218
			c-0.328-0.335-0.831-0.488-1.297-0.394c-0.087,0.015-0.182,0.043-0.27,0.08c-0.087,0.036-0.168,0.08-0.248,0.131
			c-0.08,0.051-0.153,0.117-0.219,0.182c-0.065,0.065-0.124,0.139-0.175,0.218c-0.051,0.08-0.095,0.16-0.131,0.248
			c-0.036,0.088-0.066,0.175-0.08,0.27c-0.022,0.095-0.029,0.189-0.029,0.285c0,0.087,0.007,0.182,0.029,0.277
			c0.015,0.088,0.044,0.182,0.08,0.27c0.037,0.087,0.08,0.167,0.131,0.248c0.051,0.08,0.109,0.153,0.175,0.219
			c0.27,0.263,0.642,0.423,1.02,0.423c0.379,0,0.751-0.16,1.013-0.423c0.066-0.066,0.131-0.139,0.182-0.219
			c0.051-0.08,0.095-0.161,0.131-0.248c0.036-0.087,0.065-0.182,0.08-0.27c0.022-0.095,0.029-0.19,0.029-0.277
			c0-0.095-0.007-0.19-0.029-0.285C593.776,55.974,593.746,55.886,593.71,55.799z"/>
		<path style="fill:#C2EEFF;" d="M607.156,55.799c-0.036-0.088-0.08-0.167-0.131-0.248c-0.051-0.08-0.109-0.153-0.182-0.218
			c-0.066-0.065-0.139-0.131-0.219-0.182c-0.073-0.051-0.16-0.095-0.248-0.131c-0.088-0.037-0.175-0.066-0.27-0.08
			c-0.182-0.036-0.372-0.036-0.561,0c-0.087,0.015-0.182,0.043-0.269,0.08c-0.088,0.036-0.168,0.08-0.248,0.131
			c-0.08,0.051-0.153,0.117-0.218,0.182c-0.065,0.065-0.124,0.139-0.175,0.218c-0.051,0.08-0.102,0.16-0.131,0.248
			c-0.037,0.088-0.066,0.175-0.088,0.27c-0.015,0.095-0.029,0.189-0.029,0.285c0,0.087,0.015,0.182,0.029,0.277
			c0.022,0.088,0.051,0.182,0.088,0.27c0.036,0.087,0.08,0.167,0.131,0.248c0.051,0.08,0.11,0.153,0.175,0.219
			c0.27,0.263,0.641,0.423,1.02,0.423c0.379,0,0.751-0.16,1.013-0.423c0.065-0.066,0.131-0.139,0.182-0.219
			c0.051-0.08,0.095-0.161,0.131-0.248c0.037-0.087,0.066-0.182,0.08-0.27c0.022-0.095,0.029-0.19,0.029-0.277
			c0-0.095-0.008-0.19-0.029-0.285C607.222,55.974,607.193,55.886,607.156,55.799z"/>
		<path style="fill:#C2EEFF;" d="M620.602,55.799c-0.036-0.088-0.08-0.167-0.131-0.248c-0.051-0.08-0.116-0.153-0.182-0.218
			c-0.328-0.335-0.831-0.488-1.297-0.394c-0.087,0.015-0.182,0.043-0.27,0.08c-0.088,0.036-0.168,0.08-0.248,0.131
			c-0.08,0.051-0.153,0.117-0.219,0.182c-0.065,0.065-0.124,0.139-0.175,0.218c-0.051,0.08-0.095,0.16-0.131,0.248
			c-0.036,0.088-0.065,0.175-0.087,0.27c-0.015,0.095-0.029,0.189-0.029,0.285c0,0.087,0.015,0.182,0.029,0.277
			c0.022,0.088,0.051,0.182,0.087,0.27c0.037,0.087,0.081,0.167,0.131,0.248c0.051,0.08,0.109,0.153,0.175,0.219
			c0.27,0.263,0.642,0.423,1.021,0.423c0.379,0,0.75-0.16,1.013-0.423c0.066-0.066,0.131-0.139,0.182-0.219
			c0.051-0.08,0.095-0.161,0.131-0.248c0.036-0.087,0.065-0.182,0.08-0.27c0.022-0.095,0.029-0.19,0.029-0.277
			c0-0.095-0.007-0.19-0.029-0.285C620.667,55.974,620.638,55.886,620.602,55.799z"/>
		<path style="fill:#C2EEFF;" d="M631.388,56.9c0.037,0.087,0.081,0.167,0.139,0.248c0.051,0.08,0.109,0.153,0.175,0.219
			c0.27,0.263,0.641,0.423,1.02,0.423c0.088,0,0.182-0.015,0.277-0.029c0.095-0.022,0.182-0.051,0.269-0.087
			c0.088-0.029,0.168-0.08,0.248-0.131c0.08-0.051,0.153-0.11,0.219-0.175c0.065-0.066,0.131-0.139,0.182-0.219
			c0.051-0.08,0.095-0.161,0.131-0.248c0.036-0.087,0.065-0.182,0.08-0.27c0.022-0.095,0.029-0.19,0.029-0.277
			c0-0.095-0.008-0.19-0.029-0.285c-0.015-0.095-0.044-0.182-0.08-0.27c-0.037-0.088-0.081-0.167-0.131-0.248
			c-0.051-0.08-0.117-0.153-0.182-0.218c-0.065-0.065-0.138-0.131-0.219-0.182c-0.073-0.051-0.161-0.095-0.248-0.131
			c-0.087-0.037-0.175-0.066-0.269-0.08c-0.467-0.095-0.962,0.058-1.297,0.394c-0.065,0.065-0.124,0.139-0.175,0.218
			c-0.058,0.08-0.102,0.16-0.139,0.248c-0.036,0.088-0.058,0.175-0.08,0.27c-0.015,0.095-0.029,0.189-0.029,0.285
			c0,0.087,0.015,0.182,0.029,0.277C631.33,56.718,631.351,56.812,631.388,56.9z"/>
		<path style="fill:#C2EEFF;" d="M566.818,69.245c-0.037-0.088-0.08-0.167-0.131-0.248s-0.109-0.153-0.175-0.218
			c-0.539-0.539-1.501-0.539-2.033,0c-0.073,0.065-0.131,0.138-0.182,0.218c-0.051,0.08-0.095,0.16-0.131,0.248
			c-0.036,0.087-0.065,0.175-0.08,0.27c-0.022,0.088-0.029,0.182-0.029,0.277c0,0.379,0.153,0.751,0.423,1.021
			c0.065,0.066,0.138,0.124,0.219,0.175c0.073,0.05,0.16,0.095,0.248,0.131c0.088,0.036,0.175,0.065,0.263,0.087
			c0.095,0.014,0.189,0.029,0.284,0.029c0.095,0,0.19-0.015,0.284-0.029c0.088-0.022,0.182-0.051,0.27-0.087
			c0.08-0.036,0.168-0.081,0.248-0.131c0.073-0.051,0.146-0.11,0.218-0.175c0.066-0.065,0.124-0.139,0.175-0.218
			c0.051-0.08,0.095-0.161,0.131-0.248c0.036-0.087,0.065-0.182,0.087-0.269c0.015-0.095,0.022-0.19,0.022-0.285
			c0-0.095-0.008-0.182-0.022-0.277C566.884,69.42,566.855,69.332,566.818,69.245z"/>
		<path style="fill:#C2EEFF;" d="M580.264,69.245c-0.036-0.088-0.08-0.167-0.131-0.248c-0.051-0.08-0.11-0.153-0.175-0.218
			c-0.066-0.065-0.146-0.132-0.219-0.182c-0.08-0.051-0.168-0.095-0.255-0.132c-0.08-0.036-0.175-0.065-0.262-0.08
			c-0.474-0.095-0.969,0.058-1.305,0.394c-0.066,0.065-0.124,0.138-0.175,0.218c-0.051,0.08-0.095,0.16-0.131,0.248
			c-0.037,0.087-0.066,0.175-0.088,0.27c-0.015,0.095-0.022,0.182-0.022,0.277c0,0.095,0.008,0.189,0.022,0.285
			c0.022,0.087,0.051,0.182,0.088,0.269c0.036,0.088,0.08,0.168,0.131,0.248c0.051,0.08,0.109,0.153,0.175,0.218
			c0.065,0.066,0.146,0.124,0.219,0.175c0.08,0.05,0.168,0.095,0.248,0.131c0.088,0.036,0.182,0.065,0.27,0.087
			c0.095,0.014,0.19,0.029,0.284,0.029c0.095,0,0.189-0.015,0.284-0.029c0.087-0.022,0.182-0.051,0.262-0.087
			c0.088-0.036,0.175-0.081,0.248-0.131c0.08-0.051,0.153-0.11,0.219-0.175c0.269-0.27,0.422-0.641,0.422-1.021
			c0-0.095-0.007-0.189-0.029-0.277C580.33,69.42,580.301,69.332,580.264,69.245z"/>
		<path style="fill:#C2EEFF;" d="M593.71,69.245c-0.037-0.088-0.08-0.167-0.131-0.248c-0.051-0.08-0.109-0.153-0.175-0.218
			c-0.335-0.335-0.838-0.488-1.305-0.394c-0.087,0.014-0.182,0.043-0.27,0.08c-0.08,0.037-0.168,0.08-0.248,0.132
			c-0.08,0.051-0.153,0.117-0.219,0.182c-0.065,0.065-0.124,0.138-0.175,0.218c-0.051,0.08-0.095,0.16-0.131,0.248
			c-0.036,0.087-0.066,0.175-0.08,0.27c-0.022,0.088-0.029,0.182-0.029,0.277c0,0.379,0.153,0.751,0.423,1.021
			c0.262,0.27,0.634,0.423,1.013,0.423c0.095,0,0.19-0.015,0.277-0.029c0.095-0.022,0.182-0.051,0.269-0.087
			c0.087-0.036,0.175-0.081,0.255-0.131c0.073-0.051,0.146-0.11,0.219-0.175c0.065-0.065,0.124-0.139,0.175-0.218
			c0.051-0.08,0.095-0.161,0.131-0.248c0.036-0.087,0.065-0.182,0.08-0.269c0.022-0.095,0.029-0.19,0.029-0.285
			c0-0.095-0.007-0.182-0.029-0.277C593.776,69.42,593.746,69.332,593.71,69.245z"/>
		<path style="fill:#C2EEFF;" d="M607.156,69.245c-0.036-0.088-0.08-0.167-0.131-0.248c-0.051-0.08-0.117-0.153-0.182-0.218
			c-0.066-0.065-0.139-0.132-0.219-0.182c-0.073-0.051-0.16-0.095-0.248-0.132c-0.088-0.036-0.175-0.065-0.27-0.08
			c-0.466-0.095-0.962,0.058-1.297,0.394c-0.065,0.065-0.124,0.138-0.175,0.218c-0.051,0.08-0.095,0.16-0.131,0.248
			c-0.037,0.087-0.066,0.175-0.088,0.27c-0.015,0.095-0.022,0.182-0.022,0.277c0,0.095,0.007,0.189,0.022,0.285
			c0.022,0.087,0.051,0.182,0.088,0.269c0.036,0.088,0.08,0.168,0.131,0.248c0.051,0.08,0.11,0.153,0.175,0.218
			c0.065,0.066,0.146,0.124,0.218,0.175c0.081,0.05,0.161,0.095,0.248,0.131c0.087,0.036,0.182,0.065,0.269,0.087
			c0.095,0.014,0.19,0.029,0.284,0.029c0.095,0,0.19-0.015,0.277-0.029c0.095-0.022,0.182-0.051,0.27-0.087
			c0.088-0.036,0.175-0.081,0.248-0.131c0.08-0.051,0.153-0.11,0.219-0.175c0.065-0.065,0.131-0.139,0.182-0.218
			c0.051-0.08,0.095-0.161,0.131-0.248c0.037-0.087,0.066-0.182,0.08-0.269c0.022-0.095,0.029-0.19,0.029-0.285
			c0-0.095-0.008-0.182-0.029-0.277C607.222,69.42,607.193,69.332,607.156,69.245z"/>
		<path style="fill:#C2EEFF;" d="M620.602,69.245c-0.036-0.088-0.08-0.167-0.131-0.248c-0.051-0.08-0.109-0.153-0.182-0.218
			c-0.065-0.065-0.138-0.132-0.219-0.182c-0.073-0.051-0.161-0.095-0.248-0.132c-0.088-0.036-0.175-0.065-0.27-0.08
			c-0.466-0.095-0.962,0.058-1.297,0.394c-0.065,0.065-0.124,0.138-0.175,0.218c-0.051,0.08-0.102,0.16-0.131,0.248
			c-0.036,0.087-0.065,0.175-0.087,0.27c-0.015,0.095-0.029,0.182-0.029,0.277c0,0.095,0.015,0.189,0.029,0.285
			c0.022,0.087,0.051,0.182,0.087,0.269c0.029,0.088,0.081,0.168,0.131,0.248c0.051,0.08,0.109,0.153,0.175,0.218
			c0.066,0.066,0.139,0.124,0.219,0.175c0.08,0.05,0.16,0.095,0.248,0.131c0.088,0.036,0.182,0.065,0.27,0.087
			c0.095,0.014,0.189,0.029,0.284,0.029c0.095,0,0.189-0.015,0.277-0.029c0.095-0.022,0.182-0.051,0.27-0.087
			c0.087-0.036,0.175-0.081,0.248-0.131c0.08-0.051,0.153-0.11,0.219-0.175c0.27-0.27,0.423-0.641,0.423-1.021
			c0-0.095-0.007-0.189-0.029-0.277C620.667,69.42,620.638,69.332,620.602,69.245z"/>
		<path style="fill:#C2EEFF;" d="M634.048,69.245c-0.037-0.088-0.081-0.167-0.131-0.248c-0.051-0.08-0.117-0.153-0.182-0.218
			c-0.328-0.335-0.831-0.488-1.297-0.394c-0.088,0.014-0.182,0.043-0.27,0.08c-0.088,0.037-0.168,0.08-0.248,0.132
			c-0.08,0.051-0.153,0.117-0.218,0.182c-0.065,0.065-0.124,0.138-0.175,0.218c-0.058,0.08-0.102,0.16-0.139,0.248
			c-0.036,0.087-0.058,0.175-0.08,0.27c-0.015,0.095-0.029,0.182-0.029,0.277c0,0.379,0.153,0.751,0.423,1.021
			c0.27,0.27,0.641,0.423,1.02,0.423c0.088,0,0.182-0.015,0.277-0.029c0.095-0.022,0.182-0.051,0.269-0.087
			c0.088-0.036,0.175-0.081,0.248-0.131c0.08-0.051,0.153-0.11,0.219-0.175c0.065-0.065,0.131-0.139,0.182-0.218
			c0.051-0.08,0.095-0.161,0.131-0.248c0.036-0.087,0.065-0.182,0.08-0.269c0.022-0.095,0.029-0.19,0.029-0.285
			c0-0.095-0.008-0.182-0.029-0.277C634.113,69.42,634.084,69.332,634.048,69.245z"/>
		<path style="fill:#C2EEFF;" d="M566.818,82.691c-0.037-0.088-0.08-0.175-0.131-0.248c-0.051-0.08-0.109-0.153-0.175-0.218
			c-0.073-0.073-0.146-0.132-0.218-0.182c-0.08-0.051-0.168-0.095-0.248-0.132c-0.088-0.036-0.182-0.065-0.27-0.08
			c-0.189-0.037-0.379-0.037-0.568,0c-0.088,0.014-0.182,0.043-0.27,0.08c-0.08,0.036-0.168,0.081-0.248,0.132
			c-0.073,0.05-0.146,0.109-0.211,0.182c-0.073,0.065-0.131,0.138-0.182,0.218c-0.051,0.073-0.095,0.16-0.131,0.248
			c-0.036,0.088-0.065,0.175-0.08,0.27c-0.022,0.088-0.029,0.182-0.029,0.277c0,0.095,0.007,0.189,0.029,0.284
			c0.015,0.088,0.044,0.182,0.08,0.27c0.036,0.088,0.08,0.168,0.131,0.248c0.051,0.08,0.109,0.153,0.182,0.219
			c0.262,0.262,0.634,0.415,1.013,0.415c0.095,0,0.19-0.007,0.284-0.021c0.088-0.022,0.182-0.051,0.27-0.088
			c0.08-0.037,0.168-0.08,0.248-0.132c0.073-0.051,0.146-0.109,0.218-0.174c0.066-0.066,0.124-0.139,0.175-0.219
			c0.051-0.08,0.095-0.16,0.131-0.248c0.036-0.088,0.065-0.182,0.087-0.27c0.015-0.095,0.022-0.189,0.022-0.284
			c0-0.095-0.008-0.189-0.022-0.277C566.884,82.866,566.855,82.779,566.818,82.691z"/>
		<path style="fill:#C2EEFF;" d="M580.264,82.691c-0.036-0.088-0.08-0.175-0.131-0.248c-0.051-0.08-0.11-0.153-0.182-0.218
			c-0.066-0.073-0.139-0.132-0.211-0.182c-0.08-0.051-0.168-0.095-0.248-0.132c-0.087-0.036-0.182-0.065-0.269-0.08
			c-0.19-0.037-0.379-0.037-0.569,0c-0.088,0.014-0.182,0.043-0.262,0.08c-0.087,0.036-0.175,0.081-0.255,0.132
			c-0.073,0.05-0.146,0.109-0.219,0.182c-0.066,0.065-0.124,0.138-0.175,0.218c-0.051,0.073-0.095,0.16-0.131,0.248
			c-0.037,0.088-0.066,0.175-0.088,0.27c-0.015,0.088-0.022,0.182-0.022,0.277c0,0.095,0.008,0.189,0.022,0.284
			c0.022,0.088,0.051,0.182,0.088,0.27c0.036,0.088,0.08,0.168,0.131,0.248c0.051,0.08,0.109,0.153,0.175,0.219
			c0.073,0.065,0.146,0.124,0.219,0.174c0.08,0.051,0.168,0.095,0.255,0.132c0.08,0.036,0.175,0.065,0.262,0.088
			c0.095,0.014,0.19,0.021,0.284,0.021c0.379,0,0.75-0.153,1.013-0.415c0.073-0.066,0.131-0.139,0.182-0.219
			c0.051-0.08,0.095-0.16,0.131-0.248c0.037-0.088,0.066-0.182,0.081-0.27c0.022-0.095,0.029-0.189,0.029-0.284
			c0-0.095-0.007-0.189-0.029-0.277C580.33,82.866,580.301,82.779,580.264,82.691z"/>
		<path style="fill:#C2EEFF;" d="M593.71,82.691c-0.037-0.088-0.08-0.175-0.131-0.248c-0.051-0.08-0.109-0.153-0.175-0.218
			c-0.066-0.073-0.146-0.132-0.219-0.182c-0.08-0.051-0.168-0.095-0.255-0.132c-0.08-0.036-0.175-0.065-0.262-0.08
			c-0.189-0.037-0.379-0.037-0.568,0c-0.087,0.014-0.182,0.043-0.27,0.08c-0.08,0.036-0.168,0.081-0.248,0.132
			c-0.073,0.05-0.153,0.109-0.219,0.182c-0.065,0.065-0.124,0.138-0.175,0.218c-0.051,0.073-0.095,0.16-0.131,0.248
			c-0.036,0.088-0.066,0.175-0.088,0.27c-0.015,0.088-0.029,0.182-0.029,0.277c0,0.095,0.015,0.189,0.029,0.284
			c0.022,0.088,0.051,0.182,0.088,0.27c0.037,0.088,0.08,0.168,0.131,0.248c0.051,0.08,0.109,0.153,0.175,0.219
			c0.066,0.065,0.146,0.124,0.219,0.174c0.08,0.051,0.168,0.095,0.248,0.132c0.088,0.036,0.182,0.065,0.27,0.088
			c0.095,0.014,0.189,0.021,0.284,0.021c0.095,0,0.19-0.007,0.277-0.021c0.095-0.022,0.182-0.051,0.269-0.088
			c0.087-0.037,0.175-0.08,0.248-0.132c0.08-0.051,0.153-0.109,0.219-0.174c0.066-0.066,0.131-0.139,0.182-0.219
			c0.051-0.08,0.095-0.16,0.131-0.248c0.036-0.088,0.065-0.182,0.08-0.27c0.022-0.095,0.029-0.189,0.029-0.284
			c0-0.095-0.007-0.189-0.029-0.277C593.776,82.866,593.746,82.779,593.71,82.691z"/>
		<path style="fill:#C2EEFF;" d="M607.156,82.691c-0.036-0.088-0.08-0.175-0.131-0.248c-0.051-0.08-0.109-0.153-0.175-0.218
			c-0.073-0.073-0.146-0.132-0.226-0.182c-0.073-0.051-0.16-0.095-0.248-0.132c-0.088-0.036-0.175-0.065-0.27-0.08
			c-0.182-0.037-0.372-0.037-0.561,0c-0.087,0.014-0.182,0.043-0.269,0.08c-0.088,0.036-0.168,0.081-0.248,0.132
			c-0.08,0.05-0.153,0.109-0.218,0.182c-0.065,0.065-0.124,0.138-0.175,0.218c-0.051,0.073-0.102,0.16-0.131,0.248
			c-0.037,0.088-0.066,0.175-0.088,0.27c-0.015,0.088-0.029,0.182-0.029,0.277c0,0.095,0.015,0.189,0.029,0.284
			c0.022,0.088,0.051,0.182,0.088,0.27c0.029,0.088,0.08,0.168,0.131,0.248c0.051,0.08,0.11,0.153,0.175,0.219
			c0.065,0.065,0.138,0.124,0.218,0.174c0.081,0.051,0.161,0.095,0.248,0.132c0.087,0.036,0.182,0.065,0.269,0.088
			c0.095,0.014,0.19,0.021,0.284,0.021c0.379,0,0.751-0.153,1.013-0.415c0.065-0.066,0.131-0.139,0.182-0.219
			c0.051-0.08,0.095-0.16,0.131-0.248c0.037-0.088,0.066-0.182,0.08-0.27c0.022-0.095,0.029-0.189,0.029-0.284
			c0-0.095-0.008-0.189-0.029-0.277C607.222,82.866,607.193,82.779,607.156,82.691z"/>
		<path style="fill:#C2EEFF;" d="M620.602,82.691c-0.036-0.088-0.08-0.175-0.131-0.248c-0.051-0.08-0.116-0.153-0.182-0.218
			c-0.065-0.073-0.138-0.132-0.219-0.182c-0.073-0.051-0.161-0.095-0.248-0.132c-0.088-0.036-0.175-0.065-0.27-0.08
			c-0.182-0.037-0.372-0.037-0.561,0c-0.087,0.014-0.182,0.043-0.27,0.08c-0.088,0.036-0.168,0.081-0.248,0.132
			c-0.08,0.05-0.153,0.109-0.219,0.182c-0.065,0.065-0.124,0.138-0.175,0.218c-0.051,0.073-0.095,0.16-0.131,0.248
			c-0.036,0.088-0.065,0.175-0.087,0.27c-0.015,0.088-0.022,0.182-0.022,0.277c0,0.095,0.008,0.189,0.022,0.284
			c0.022,0.088,0.051,0.182,0.087,0.27c0.037,0.088,0.081,0.168,0.131,0.248c0.051,0.08,0.109,0.153,0.175,0.219
			c0.066,0.065,0.139,0.124,0.219,0.174c0.08,0.051,0.16,0.095,0.248,0.132c0.088,0.036,0.182,0.065,0.27,0.088
			c0.095,0.014,0.189,0.021,0.284,0.021c0.095,0,0.189-0.007,0.277-0.021c0.095-0.022,0.182-0.051,0.27-0.088
			c0.087-0.037,0.175-0.08,0.248-0.132c0.08-0.051,0.153-0.109,0.219-0.174c0.066-0.066,0.131-0.139,0.182-0.219
			c0.051-0.08,0.095-0.16,0.131-0.248c0.036-0.088,0.065-0.182,0.08-0.27c0.022-0.095,0.029-0.189,0.029-0.284
			c0-0.095-0.007-0.189-0.029-0.277C620.667,82.866,620.638,82.779,620.602,82.691z"/>
		<path style="fill:#C2EEFF;" d="M634.048,82.691c-0.037-0.088-0.081-0.175-0.131-0.248c-0.051-0.08-0.117-0.153-0.182-0.218
			c-0.065-0.073-0.138-0.132-0.219-0.182c-0.073-0.051-0.161-0.095-0.248-0.132c-0.087-0.036-0.175-0.065-0.269-0.08
			c-0.182-0.037-0.372-0.037-0.561,0c-0.095,0.014-0.182,0.043-0.27,0.08c-0.088,0.036-0.168,0.081-0.248,0.132
			c-0.08,0.05-0.153,0.109-0.218,0.182c-0.065,0.065-0.124,0.138-0.175,0.218c-0.058,0.073-0.102,0.16-0.139,0.248
			c-0.029,0.088-0.058,0.175-0.08,0.27c-0.015,0.088-0.029,0.182-0.029,0.277c0,0.095,0.015,0.189,0.029,0.284
			c0.022,0.088,0.051,0.182,0.08,0.27c0.037,0.088,0.081,0.168,0.139,0.248c0.051,0.08,0.109,0.153,0.175,0.219
			c0.065,0.065,0.138,0.124,0.218,0.174c0.08,0.051,0.161,0.095,0.248,0.132c0.088,0.036,0.175,0.065,0.27,0.088
			c0.095,0.014,0.189,0.021,0.284,0.021c0.379,0,0.751-0.153,1.013-0.415c0.065-0.066,0.131-0.139,0.182-0.219
			c0.051-0.08,0.095-0.16,0.131-0.248c0.036-0.088,0.065-0.182,0.08-0.27c0.022-0.095,0.029-0.189,0.029-0.284
			c0-0.095-0.008-0.189-0.029-0.277C634.113,82.866,634.084,82.779,634.048,82.691z"/>
	</g>
	<g>
		<path style="fill:#001A2D;" d="M310.05,134.258v88.22c0,3.238-2.627,5.855-5.855,5.855h-10.876v-99.931h10.876
			C307.423,128.403,310.05,131.03,310.05,134.258z"/>
		<path style="fill:#6CA8F7;" d="M155.456,225.068h152c3.234,0,5.855-2.621,5.855-5.855v-88.217c0-3.234-2.621-5.855-5.855-5.855
			h-152c-3.234,0-5.855,2.621-5.855,5.855v88.217C149.601,222.447,152.222,225.068,155.456,225.068z"/>
		<rect x="149.601" y="139.506" style="fill:#04467A;" width="163.711" height="24.913"/>
		<circle style="fill:#FFFFFF;" cx="267.873" cy="195.679" r="12.654"/>
		<circle style="fill:#C7E2FF;" cx="286.904" cy="195.679" r="12.654"/>
		<path style="fill:#C7E2FF;" d="M218.379,191.389h-50.625c-2.31,0-4.182-1.872-4.182-4.182l0,0c0-2.31,1.872-4.182,4.182-4.182
			h50.625c2.31,0,4.182,1.872,4.182,4.182l0,0C222.561,189.517,220.689,191.389,218.379,191.389z M192.29,204.545L192.29,204.545
			c0-2.31-1.872-4.182-4.182-4.182h-20.354c-2.31,0-4.182,1.872-4.182,4.182l0,0c0,2.31,1.872,4.182,4.182,4.182h20.354
			C190.418,208.727,192.29,206.855,192.29,204.545z"/>
	</g>
	<g style="opacity:0.2;">
		<path style="fill:#4873E6;" d="M277.343,253.392c0.545-1.117,0.852-2.372,0.852-3.699c0-4.666-3.783-8.449-8.449-8.449
			c-4.666,0-8.449,3.783-8.449,8.449c0,1.327,0.307,2.581,0.851,3.699c-0.533,0.566-0.863,1.328-0.863,2.167
			c0,1.748,1.417,3.165,3.165,3.165c0.254,0,0.5-0.033,0.737-0.09v1.497c0,0.877,0.711,1.589,1.589,1.589h5.939
			c0.877,0,1.589-0.711,1.589-1.589v-1.497c0.237,0.057,0.483,0.09,0.737,0.09c1.748,0,3.165-1.417,3.165-3.165
			C278.206,254.719,277.877,253.958,277.343,253.392z M266.727,255.21c-1.187,0-2.152-0.966-2.152-2.153s0.965-2.152,2.152-2.152
			c1.187,0,2.153,0.965,2.153,2.152S267.914,255.21,266.727,255.21z M270.507,257.703h-1.522c-0.273,0-0.441-0.3-0.297-0.533
			l0.761-1.235c0.137-0.221,0.458-0.221,0.595,0l0.761,1.235C270.948,257.403,270.781,257.703,270.507,257.703z M272.765,255.21
			c-1.187,0-2.152-0.966-2.152-2.153s0.966-2.152,2.152-2.152c1.187,0,2.153,0.965,2.153,2.152S273.952,255.21,272.765,255.21z"/>
		<path style="fill:#4873E6;" d="M283.013,261.326c-0.408-1.121-1.648-1.699-2.769-1.291c-1.062,0.387-1.635,1.519-1.346,2.591
			l-19.43,7.072c-0.467-1.007-1.634-1.506-2.697-1.12c-1.121,0.408-1.699,1.648-1.291,2.769c0.193,0.531,0.574,0.938,1.039,1.178
			c-0.202,0.483-0.232,1.04-0.039,1.571c0.408,1.121,1.648,1.699,2.769,1.291c1.062-0.387,1.635-1.519,1.346-2.591l19.43-7.072
			c0.467,1.007,1.634,1.506,2.697,1.12c1.121-0.408,1.699-1.648,1.291-2.769c-0.193-0.531-0.574-0.938-1.039-1.178
			C283.176,262.413,283.206,261.857,283.013,261.326z"/>
		<path style="fill:#4873E6;" d="M256.48,261.326c0.408-1.121,1.648-1.699,2.769-1.291c1.062,0.387,1.635,1.519,1.346,2.591
			l19.43,7.072c0.467-1.007,1.634-1.506,2.697-1.12c1.121,0.408,1.699,1.648,1.291,2.769c-0.193,0.531-0.574,0.938-1.039,1.178
			c0.202,0.483,0.232,1.04,0.039,1.571c-0.408,1.121-1.648,1.699-2.769,1.291c-1.062-0.387-1.635-1.519-1.346-2.591l-19.43-7.072
			c-0.467,1.007-1.635,1.506-2.697,1.12c-1.121-0.408-1.699-1.648-1.291-2.769c0.193-0.531,0.574-0.938,1.039-1.178
			C256.316,262.413,256.286,261.857,256.48,261.326z"/>
	</g>
	<path style="opacity:0.2;fill:#4873E6;" d="M488.491,263.308c-0.11-4.324-3.674-7.797-8.058-7.797
		c-4.334,0-7.867,3.392-8.053,7.647c-0.006,0.117-0.009,0.235-0.009,0.353c0,1.512,0.422,2.925,1.156,4.131l-1.453,4.294
		l4.463-1.419c1.156,0.634,2.483,0.996,3.897,0.996c4.453,0,8.062-3.583,8.062-8.002
		C488.495,263.443,488.493,263.375,488.491,263.308z M480.433,270.237c-1.376,0-2.657-0.41-3.728-1.114l-2.606,0.829l0.848-2.498
		c-0.812-1.109-1.291-2.473-1.291-3.943c0-0.22,0.011-0.437,0.032-0.652c0.331-3.405,3.229-6.075,6.745-6.075
		c3.56,0,6.486,2.737,6.756,6.201c0.013,0.173,0.023,0.349,0.023,0.525C487.212,267.219,484.17,270.237,480.433,270.237z
		 M484.273,265.353c0.049,0.082,0.049,0.475-0.116,0.933c-0.165,0.459-0.973,0.9-1.334,0.932c-0.362,0.034-0.362,0.295-2.371-0.49
		c-2.01-0.785-3.278-2.83-3.376-2.96c-0.076-0.101-0.505-0.668-0.706-1.362c-0.061-0.214-0.102-0.44-0.102-0.668
		c0-0.964,0.511-1.437,0.693-1.634c0.182-0.197,0.394-0.246,0.528-0.246c0.131,0,0.261,0.017,0.379,0.017
		c0.114,0,0.278-0.066,0.443,0.327c0.165,0.393,0.562,1.359,0.611,1.455c0.049,0.099,0.081,0.214,0.015,0.344
		c-0.045,0.093-0.078,0.161-0.125,0.233c-0.021,0.03-0.043,0.061-0.074,0.095c-0.096,0.114-0.206,0.256-0.295,0.342
		c-0.098,0.099-0.203,0.204-0.087,0.4c0.116,0.197,0.511,0.839,1.099,1.359c0.755,0.668,1.391,0.876,1.59,0.973
		c0.197,0.098,0.313,0.081,0.428-0.049c0.115-0.131,0.494-0.572,0.626-0.767c0.132-0.197,0.263-0.164,0.445-0.099
		c0.18,0.065,1.153,0.539,1.351,0.638C484.091,265.223,484.221,265.272,484.273,265.353z"/>
	<path style="opacity:0.2;fill:#4873E6;" d="M478.994,131.607c-0.078,0-0.156,0-0.234,0c-0.071-0.03-0.145-0.008-0.217-0.013
		c-0.321-0.009-0.641-0.035-0.96-0.07c-0.404-0.045-0.804-0.116-1.2-0.206c-0.61-0.139-1.203-0.331-1.78-0.572
		c-0.49-0.205-0.964-0.444-1.419-0.719c-0.085-0.051-0.179-0.093-0.249-0.174c1.023,0.121,2.027,0.021,3.013-0.253
		c0.983-0.273,1.878-0.725,2.693-1.359c-2.169-0.111-3.336-1.701-3.606-2.721c0.143,0.019,0.284,0.044,0.427,0.054
		c0.144,0.01,0.289,0.003,0.434,0.005c0.145,0.002,0.288-0.018,0.43-0.038c0.139-0.02,0.277-0.045,0.421-0.09
		c-0.024-0.009-0.036-0.016-0.05-0.019c-0.406-0.086-0.783-0.247-1.141-0.454c-0.367-0.213-0.684-0.49-0.961-0.808
		c-0.274-0.314-0.489-0.669-0.647-1.056c-0.192-0.47-0.293-0.957-0.296-1.465c0-0.074,0.025-0.07,0.074-0.043
		c0.167,0.093,0.344,0.165,0.523,0.232c0.261,0.097,0.531,0.154,0.805,0.194c0.105,0.015,0.215,0.04,0.335,0.011
		c-0.022-0.017-0.035-0.027-0.049-0.036c-0.263-0.179-0.493-0.396-0.701-0.634c-0.275-0.314-0.49-0.668-0.653-1.053
		c-0.176-0.415-0.272-0.85-0.298-1.297c-0.016-0.279-0.002-0.559,0.045-0.836c0.077-0.451,0.225-0.875,0.444-1.276
		c0.034-0.061,0.053-0.051,0.091-0.006c0.26,0.317,0.538,0.616,0.831,0.901c0.743,0.722,1.57,1.329,2.481,1.82
		c0.601,0.323,1.227,0.588,1.878,0.795c0.515,0.164,1.039,0.288,1.571,0.377c0.379,0.063,0.761,0.106,1.146,0.123
		c0.066,0.003,0.078-0.011,0.064-0.077c-0.102-0.477-0.111-0.959-0.034-1.439c0.071-0.44,0.212-0.859,0.433-1.249
		c0.225-0.398,0.501-0.755,0.849-1.055c0.292-0.252,0.611-0.462,0.963-0.622c0.491-0.224,1.006-0.332,1.542-0.343
		c0.303-0.006,0.602,0.027,0.899,0.09c0.335,0.07,0.654,0.186,0.956,0.341c0.383,0.196,0.729,0.448,1.024,0.764
		c0.025,0.027,0.049,0.034,0.088,0.026c0.186-0.039,0.371-0.085,0.554-0.136c0.548-0.154,1.073-0.368,1.575-0.636
		c0.095-0.051,0.19-0.104,0.284-0.155c0.015,0.023,0.003,0.034-0.002,0.047c-0.178,0.538-0.467,1.01-0.85,1.426
		c-0.224,0.243-0.485,0.443-0.756,0.629c-0.012,0.01-0.023,0.019-0.035,0.029c0.011,0.011,0.023,0.008,0.036,0.004
		c0.129-0.019,0.258-0.034,0.386-0.058c0.558-0.105,1.101-0.261,1.624-0.485c0.036-0.015,0.073-0.047,0.128-0.032
		c-0.04,0.058-0.076,0.111-0.113,0.163c-0.491,0.69-1.077,1.287-1.759,1.791c-0.036,0.027-0.065,0.049-0.062,0.106
		c0.028,0.501,0.008,1.001-0.042,1.5c-0.097,0.956-0.314,1.886-0.647,2.787c-0.555,1.505-1.377,2.845-2.49,4.003
		c-0.884,0.92-1.902,1.657-3.056,2.205c-1.03,0.49-2.114,0.8-3.244,0.95c-0.419,0.056-0.841,0.086-1.263,0.102
		C479.15,131.599,479.071,131.578,478.994,131.607z"/>
	<g style="opacity:0.2;">
		<path style="fill:#4873E6;" d="M245.401,109.587l-8.519-8.519l0.417-0.417l-1.033-1.033c2.482-3.958,2.009-9.239-1.434-12.683
			c-4.003-4.003-10.493-4.003-14.496,0c-4.003,4.003-4.003,10.493,0,14.495c3.444,3.444,8.725,3.916,12.683,1.434l1.032,1.033
			l0.417-0.417l8.519,8.519c0.667,0.667,1.747,0.667,2.414,0C246.067,111.335,246.067,110.254,245.401,109.587z M222.046,99.721
			c-3.058-3.058-3.058-8.017,0-11.075c3.058-3.058,8.017-3.058,11.075,0c3.058,3.058,3.058,8.017,0,11.075
			C230.063,102.779,225.104,102.779,222.046,99.721z"/>
		<path style="fill:#4873E6;" d="M227.583,88.188c-1.602,0-3.107,0.624-4.239,1.756c-0.257,0.257-0.257,0.673,0,0.929
			c0.257,0.257,0.673,0.257,0.929,0c0.884-0.884,2.06-1.371,3.31-1.371c1.25,0,2.426,0.487,3.31,1.371
			c0.128,0.128,0.297,0.193,0.465,0.193s0.336-0.064,0.465-0.193c0.257-0.257,0.257-0.673,0-0.929
			C230.69,88.812,229.185,88.188,227.583,88.188z"/>
	</g>
	<g>
		<path style="fill:#001A2D;" d="M312.848,84.841c-10.784,0-19.525,8.742-19.525,19.525v13.706h28.545
			c1.125,0,2.037-0.912,2.037-2.037V84.841H312.848z"/>
		<path style="fill:#FA716F;" d="M324.807,115.133h-50.252c-1.125,0-2.037-0.912-2.037-2.037V74.259
			c0-1.125,0.912-2.037,2.037-2.037h50.252c1.125,0,2.037,0.912,2.037,2.037v38.838
			C326.844,114.221,325.932,115.133,324.807,115.133z"/>
		<g>
			<g>
				<path style="fill:#D05B59;" d="M293.098,84.465h-10.641c-0.995,0-1.802-0.807-1.802-1.802c0-0.995,0.806-1.802,1.802-1.802
					h10.641c0.995,0,1.802,0.806,1.802,1.802C294.9,83.658,294.093,84.465,293.098,84.465z"/>
			</g>
			<g>
				<path style="fill:#D05B59;" d="M316.967,107.461h-19.411c-0.995,0-1.802-0.806-1.802-1.802c0-0.995,0.806-1.802,1.802-1.802
					h19.411c0.995,0,1.802,0.807,1.802,1.802C318.769,106.655,317.962,107.461,316.967,107.461z"/>
			</g>
			<g>
				<path style="fill:#FFFFFF;" d="M316.967,90.582h-34.51c-0.995,0-1.802-0.807-1.802-1.802c0-0.995,0.806-1.802,1.802-1.802h34.51
					c0.995,0,1.802,0.807,1.802,1.802C318.769,89.775,317.962,90.582,316.967,90.582z"/>
			</g>
			<g>
				<path style="fill:#FFFFFF;" d="M291.043,96.699h-8.586c-0.995,0-1.802-0.806-1.802-1.802c0-0.995,0.806-1.802,1.802-1.802h8.586
					c0.995,0,1.802,0.807,1.802,1.802C292.845,95.893,292.039,96.699,291.043,96.699z"/>
			</g>
			<g>
				<path style="fill:#FFD852;" d="M296.978,96.699h-0.874c-0.995,0-1.802-0.806-1.802-1.802c0-0.995,0.806-1.802,1.802-1.802h0.874
					c0.995,0,1.802,0.807,1.802,1.802C298.78,95.893,297.973,96.699,296.978,96.699z"/>
			</g>
		</g>
	</g>
	<g>
		<path style="fill:#001A2D;" d="M205.283,225.068h47.806c-0.675-5.071-2.935-9.972-6.832-13.869
			c-9.428-9.428-24.714-9.428-34.142,0C208.218,215.096,205.959,219.997,205.283,225.068z"/>
		<circle style="fill:#FFD852;" cx="232.015" cy="225.441" r="24.142"/>
		<g>
			<path style="fill:#FFA810;" d="M240.715,229.192c0,3.569-2.705,5.521-6.218,6.023v4.406h-4.155v-4.461
				c-2.593-0.418-5.187-1.45-7.083-2.928l2.175-4.406c2.008,1.701,5.27,2.984,7.278,2.984c1.227,0,2.008-0.418,2.008-1.311
				c0-2.956-10.206-1.087-10.206-7.975c0-3.151,2.231-5.326,5.828-5.967v-4.294h4.155v4.211c2.342,0.279,4.601,1.059,6.274,2.147
				l-2.147,4.462c-2.008-1.143-4.852-2.175-6.497-2.175c-0.976,0-1.617,0.334-1.617,1.06
				C230.509,223.838,240.715,222.137,240.715,229.192z"/>
		</g>
	</g>
	<path style="opacity:0.2;fill:#4873E6;" d="M220.955,372.883c-4.857,0-8.81,3.952-8.81,8.81c0,4.858,3.952,8.81,8.81,8.81
		c4.858,0,8.81-3.952,8.81-8.81C229.765,376.835,225.813,372.883,220.955,372.883z M227.809,380.751h-2.979
		c-0.088-2.002-0.458-3.941-1.095-5.396C225.897,376.307,227.478,378.331,227.809,380.751z M220.955,388.619
		c-0.558,0-1.797-2.049-1.977-5.984h3.955C222.753,386.569,221.514,388.619,220.955,388.619z M218.978,380.751
		c0.18-3.934,1.419-5.984,1.977-5.984c0.558,0,1.797,2.049,1.977,5.984H218.978z M218.175,375.355
		c-0.637,1.455-1.007,3.394-1.095,5.396h-2.979C214.433,378.331,216.014,376.307,218.175,375.355z M214.102,382.635h2.979
		c0.088,2.002,0.458,3.941,1.095,5.396C216.014,387.079,214.433,385.055,214.102,382.635z M223.736,388.031
		c0.637-1.455,1.007-3.394,1.095-5.396h2.979C227.478,385.055,225.897,387.079,223.736,388.031z"/>
	<path style="fill:#001A2D;" d="M586.141,138.627h-14.682c-1.948,0-3.526,1.579-3.526,3.526v7.315
		C575.037,147.68,581.326,143.846,586.141,138.627z"/>
	<g>
		<path style="fill:#FFFFFF;" d="M523.857,109.6c0-20.508,16.625-37.133,37.133-37.133c20.508,0,37.133,16.625,37.133,37.133
			c0,20.508-16.625,37.133-37.133,37.133c-2.926,0-5.768-0.349-8.499-0.989l-9.859,9.859v-13.731
			C531.422,135.482,523.857,123.428,523.857,109.6z"/>
		<g>
			<path style="fill:#C7E2FF;" d="M569.871,129.51l-0.001,0c-5.731,2.113-12.028,2.113-17.759,0l-0.001,0
				c-3.769-1.389-6.272-4.98-6.272-8.997v-19.215h30.305v19.215C576.143,124.53,573.639,128.121,569.871,129.51z"/>
			<polygon style="fill:#6CA8F7;" points="568.361,119.711 564.886,123.186 560.99,119.29 557.095,123.186 553.62,119.711 
				557.515,115.815 553.62,111.92 557.095,108.445 560.99,112.34 564.886,108.445 568.361,111.92 564.465,115.815 			"/>
			<g>
				<path style="fill:#6CA8F7;" d="M572.004,101.298h-4.895v-9.852c0-1.35-1.098-2.448-2.448-2.448h-7
					c-1.349,0-2.448,1.098-2.448,2.448v5.15h-4.895v-5.15c0-4.049,3.294-7.343,7.343-7.343h7c4.049,0,7.343,3.294,7.343,7.343
					V101.298z"/>
			</g>
		</g>
	</g>
	<g>
		<path style="fill:#001A2D;" d="M456.682,373.99v-30.524c-0.674-0.09-1.356-0.153-2.055-0.153c-8.513,0-15.415,6.901-15.415,15.415
			c0,8.513,6.901,15.415,15.415,15.415C455.326,374.143,456.008,374.08,456.682,373.99z"/>
		
			<ellipse transform="matrix(0.9254 -0.3791 0.3791 0.9254 -101.128 199.7586)" style="fill:#FA716F;" cx="456.682" cy="356.673" rx="15.415" ry="15.415"/>
		<path style="fill:#FFFFFF;" d="M459.592,356.673l3.914-3.914c0.804-0.803,0.804-2.107,0-2.91c-0.804-0.804-2.106-0.804-2.91,0
			l-3.914,3.914l-3.913-3.914c-0.804-0.804-2.106-0.804-2.91,0c-0.804,0.803-0.804,2.107,0,2.91l3.914,3.914l-3.914,3.914
			c-0.804,0.803-0.804,2.107,0,2.91c0.402,0.402,0.928,0.603,1.455,0.603c0.527,0,1.053-0.201,1.455-0.603l3.913-3.914l3.914,3.914
			c0.402,0.402,0.928,0.603,1.455,0.603c0.527,0,1.053-0.201,1.455-0.603c0.804-0.803,0.804-2.107,0-2.91L459.592,356.673z"/>
	</g>
	<g>
		<path style="fill:#FFFFFF;" d="M192.212,100.303v-2.991l-2.786-0.457c-0.205-0.853-0.541-1.652-0.987-2.38l1.647-2.295
			l-2.115-2.115l-2.294,1.647c-0.728-0.445-1.527-0.781-2.38-0.987l-0.458-2.786h-2.99l-0.457,2.786
			c-0.853,0.205-1.652,0.541-2.38,0.987l-2.295-1.647l-2.115,2.115l1.647,2.295c-0.445,0.728-0.781,1.527-0.987,2.38l-2.786,0.457
			v2.991l2.786,0.457c0.205,0.853,0.541,1.652,0.987,2.38l-1.647,2.295l2.115,2.115l2.295-1.647c0.728,0.445,1.527,0.781,2.38,0.987
			l0.457,2.786h2.99l0.458-2.786c0.853-0.205,1.652-0.541,2.38-0.987l2.294,1.647l2.115-2.115l-1.647-2.295
			c0.445-0.728,0.781-1.527,0.987-2.38L192.212,100.303z M181.344,102.293c-1.925,0-3.485-1.56-3.485-3.485
			c0-1.925,1.56-3.485,3.485-3.485c1.925,0,3.485,1.56,3.485,3.485C184.83,100.733,183.269,102.293,181.344,102.293z"/>
		<path style="fill:#FFFFFF;" d="M208.34,78.954v-3.852l-3.589-0.589c-0.265-1.098-0.697-2.128-1.271-3.065l2.122-2.956
			l-2.724-2.724l-2.956,2.122c-0.937-0.574-1.967-1.007-3.065-1.271l-0.589-3.589h-3.852l-0.589,3.589
			c-1.098,0.265-2.128,0.697-3.065,1.271l-2.956-2.122l-2.724,2.724l2.122,2.956c-0.574,0.937-1.007,1.967-1.271,3.065l-3.589,0.589
			v3.852l3.589,0.589c0.265,1.098,0.697,2.128,1.271,3.065l-2.122,2.956l2.724,2.724l2.956-2.122
			c0.937,0.574,1.967,1.007,3.065,1.271l0.589,3.589h3.852l0.589-3.589c1.098-0.264,2.128-0.697,3.065-1.271l2.956,2.122
			l2.724-2.724l-2.122-2.956c0.574-0.937,1.007-1.967,1.271-3.065L208.34,78.954z M194.342,81.517c-2.479,0-4.489-2.01-4.489-4.489
			c0-2.479,2.01-4.489,4.489-4.489c2.479,0,4.49,2.01,4.49,4.489C198.831,79.507,196.821,81.517,194.342,81.517z"/>
	</g>
	<path style="opacity:0.2;fill:#4873E6;" d="M137.442,115.27v0.006h-28.614c-3.869,0-7.005-3.136-7.005-7.005
		c0-3.869,3.136-7.005,7.005-7.005c0.424,0,0.838,0.04,1.24,0.112c0.224-7.245,6.164-13.05,13.463-13.05
		c5.657,0,10.497,3.488,12.494,8.43c0.382-0.048,0.77-0.075,1.166-0.075c5.134,0,9.297,4.162,9.297,9.297
		C146.488,111.03,142.46,115.137,137.442,115.27z M130.015,126.556l-5.86-5.86l-5.86,5.86h2.506v8.161h6.647v-8.161H130.015z"/>
	<g>
		<g>
			<g>
				
					<ellipse transform="matrix(0.9722 -0.2341 0.2341 0.9722 -72.6936 50.9348)" style="fill:#4794F2;" cx="178.204" cy="331.672" rx="43.49" ry="43.49"/>
				<path style="fill:#FFFFFF;" d="M184.038,313.918h6.043v-8.54l-8.013-0.214c-6.281-0.168-11.464,4.878-11.464,11.161v8.165
					h-8.072v9.478h8.072v24.215h9.79v-24.215h8.176l1.25-9.478h-9.426v-6.928C180.395,315.55,182.026,313.918,184.038,313.918z"/>
			</g>
		</g>
		<path style="fill:#001A2D;" d="M210.481,306.815c1.086,0,2.141-0.121,3.166-0.329c-4.762-6.69-11.366-11.972-19.077-15.107
			C194.837,299.933,201.863,306.815,210.481,306.815z"/>
		<path style="fill:#FFFFFF;" d="M265.427,284.871h-37.581c-1.795-6.834-8.008-11.897-15.398-11.897
			c-8.787,0-15.936,7.149-15.936,15.936c0,8.787,7.149,15.936,15.936,15.936c7.389,0,13.603-5.063,15.398-11.897h18.136v4.704
			c0,1.066,0.864,1.931,1.931,1.931h6.298c1.066,0,1.931-0.865,1.931-1.931v-0.438h3.871v0.438c0,1.066,0.865,1.931,1.931,1.931
			h0.004c1.066,0,1.931-0.865,1.931-1.931v-4.704h1.549c0.892,0,1.616-0.723,1.616-1.616v-4.847
			C267.043,285.595,266.32,284.871,265.427,284.871z M212.449,296.769c-4.333,0-7.858-3.525-7.858-7.858
			c0-4.333,3.525-7.858,7.858-7.858c4.333,0,7.858,3.525,7.858,7.858C220.307,293.244,216.782,296.769,212.449,296.769z"/>
	</g>
	<g>
		<path style="fill:#FFD852;" d="M562.197,170.496c20.941,3.15,35.496,22.33,39.827,42.038c2.8,12.74-0.357,25.494-9.008,35.352
			c-7.338,8.362-20.067,12.051-30.262,7.6c-5.378-2.348-9.689-6.618-13.343-11.21c-7.512-9.437-12.665-20.686-15.156-32.474
			c-1.246-5.896-1.828-11.934-1.708-17.96c0.06-3.011,0.296-6.019,0.712-9.003c0.522-3.743,4.103-4.135,6.858-6.821
			c4.736-4.618,11.964-8.081,18.696-7.841C559.942,170.218,561.071,170.327,562.197,170.496z"/>
		<g>
			<g>
				<g>
					<path style="fill:#001A2D;" d="M572.64,379.279l7.43,10.154c0,0-10.885,12.299-11.924,11.945
						c-1.04-0.353,2.268-11.039,2.268-11.039l-5.773-6.938L572.64,379.279z"/>
					<path style="fill:#001A2D;" d="M503.174,386.378l1.665,12.472c0,0-15.443,5.59-16.187,4.782
						c-0.744-0.808,7.275-8.608,7.275-8.608l-1.749-8.855L503.174,386.378z"/>
				</g>
			</g>
		</g>
		<path style="fill:#001A2D;" d="M523.974,179.89c6.705-2.49,18.913-2.339,25.722-0.462l7.011,24.285l15.737,43.783l-44.762,19.602
			c0,0-4.139,1.156-5.809-4.885c-3.543-12.811-13.533-49.093-13.533-49.093l-7.486-14.441
			C500.853,198.68,508.165,185.762,523.974,179.89z"/>
		<g>
			<path style="fill:#001A2D;" d="M501.519,146.425c0,0-6.613,0.547-7.25,6.812c-0.637,6.265,5.953,12.393,5.953,12.393
				L501.519,146.425z"/>
			<g>
				<path style="fill:#6CA8F7;" d="M528.116,181.61l-2.143-17.2c0,0,7.071,0.21,5.95-5.166c-0.999-4.789-6.169-3.57-7.922-0.628
					c0,0-0.675-17.599-15.129-14.519c-14.454,3.08-8.603,22.368-7.208,27.043c2.456,8.233,9.568,10.339,13.951,9.424l1.237,5.132
					c0,0,1.032,4.507,5.22,3.387C527.653,187.588,528.116,181.61,528.116,181.61z"/>
			</g>
			<path style="fill:#001A2D;" d="M524.002,158.616c0,0-9.186,4.535-10.759,4.897c-1.573,0.362-4.434-1.31-5.012-0.976
				c-0.577,0.334-2.123,2.934-3.208,3.001c-1.085,0.067-4.801,0.091-4.801,0.091l-1.27-4.864l25.368-6.26L524.002,158.616z"/>
			<path style="fill:#FFFFFF;" d="M506.117,161.87c0.333,0.761-0.014,1.648-0.774,1.981c-0.761,0.333-1.648-0.013-1.981-0.774
				c-0.333-0.761,0.014-1.648,0.774-1.981S505.784,161.11,506.117,161.87z"/>
			<path style="fill:#FFFFFF;" d="M513.133,159.901c0.333,0.761-0.013,1.648-0.774,1.981c-0.761,0.333-1.648-0.013-1.981-0.774
				c-0.333-0.761,0.014-1.648,0.774-1.981C511.913,158.794,512.8,159.141,513.133,159.901z"/>
			<g>
				<path style="fill:#6CA8F7;" d="M501.479,165.877c0,0-7.057-2.018-6.389,3.797c0.735,6.395,8.462,2.026,8.462,2.026
					L501.479,165.877z"/>
			</g>
			<path style="fill:#4763D5;" d="M515.615,180.564c2.939-0.406,7.575-4.66,7.575-4.66s-2.102,5.041-6.944,7.278L515.615,180.564z"
				/>
		</g>
		<path style="fill:none;stroke:#001A2D;stroke-width:0.6715;stroke-linecap:round;stroke-miterlimit:10;" d="M515.606,164.477
			c-0.186,2.471-1.831,4.778-4.107,5.759"/>
		<path style="fill:none;stroke:#001A2D;stroke-width:0.6715;stroke-linecap:round;stroke-miterlimit:10;" d="M508.096,161.597
			c-0.012,1.066,0.094,2.134,0.316,3.176c0.102,0.478,0.236,0.967,0.543,1.346c0.308,0.38,0.832,0.623,1.295,0.469"/>
		<path style="fill:none;stroke:#001A2D;stroke-width:0.6715;stroke-linecap:round;stroke-miterlimit:10;" d="M501.415,170.574
			c-0.384-1.114-0.769-2.227-1.153-3.341"/>
		<path style="fill:none;stroke:#001A2D;stroke-width:0.6715;stroke-linecap:round;stroke-miterlimit:10;" d="M500.626,168.895
			c-0.312,0-0.625,0-0.937,0"/>
		<path style="fill:none;stroke:#001A2D;stroke-width:0.6715;stroke-linecap:round;stroke-miterlimit:10;" d="M528.993,158.22
			c-1.393,0.563-2.417,1.947-2.547,3.445"/>
		<path style="fill:none;stroke:#001A2D;stroke-width:0.6715;stroke-linecap:round;stroke-miterlimit:10;" d="M529.143,160.312
			c-0.624-0.138-1.248-0.276-1.871-0.414"/>
		<path style="fill:none;stroke:#001A2D;stroke-width:0.6715;stroke-linecap:round;stroke-miterlimit:10;" d="M513.476,154.398
			c-1.264,0.97-2.528,1.94-3.792,2.91"/>
		<path style="fill:none;stroke:#001A2D;stroke-width:0.6715;stroke-linecap:round;stroke-miterlimit:10;" d="M505.78,157.995
			c-1.45-0.071-2.9-0.141-4.35-0.212"/>
		<path style="fill:#001A2D;" d="M524.823,258.986c0,0-43.436,34.88-45.304,44.108c-1.867,9.229,11.353,86.56,11.353,86.56
			l18.932-1.8l-7.248-76.557l27.685-18.516c0,0-7.609,24.158-6.853,31.87c0.451,4.599,39.399,63.203,39.399,63.203l15.522-9.71
			l-29.699-56.585c0,0,13.075-25.283,20.474-43.179c6.345-15.347,7.585-22.929,3.363-30.884L524.823,258.986z"/>
		<path style="fill:#001A2D;" d="M549.696,179.428c22.66,7.293,11.474,58.105,5.245,71.916c-5.454,12.093-28.961-40.65-28.961-40.65
			L549.696,179.428z"/>
		<path style="fill:#001A2D;" d="M518.635,140.378c-5.842-2.216-12.891-2.778-18.846-0.617c-2.164,0.786-4.195,2.176-5.287,4.203
			c-2.529,4.698,1.694,9.308,6.335,9.909c6.41,0.829,13.467,0.45,18.722-3.313c1.235,4.41,2.025,8.757,3.26,13.168
			c1.089-2.059,2.071-4.949,3.16-7.008c0,0,3.167-13.153-0.302-16.263C522.719,137.804,518.635,140.378,518.635,140.378z"/>
		<path style="fill:#FFD852;" d="M540.116,178.019c-6.814,4.627-11.676,25.336-11.676,25.336s-11.818,6.38-11.818,7.764
			s5.078,0.577,5.078,0.577s-2.846,3.987-0.5,4.59c2.346,0.603,15.589-19.6,15.589-19.6s12.574-16.445,20.497-11.912
			c7.922,4.533,5.976-1.353,5.976-1.353l-11.441-5.403H540.116z"/>
		<path style="fill:#6CA8F7;" d="M534.301,202.298c0,0,3.441-4.753,2.488-5.611c-0.953-0.858-7.494-2.858-8.418-2.328
			c-0.925,0.531,0.773,2.443,0.773,2.443s-1.696,0.012-2.878,0.574c-1.181,0.562,0.18,3.34,0.18,3.34s-2.404-0.721-3.326-0.032
			c-0.921,0.688,1.201,2.672,1.201,2.672s-6.495-0.016-7.01,1.01c-0.515,1.025,7.696,1.849,7.696,1.849s-2.622,4.257,4.316,6.226
			L534.301,202.298z"/>
		
			<path style="fill:none;stroke:#122A50;stroke-width:0.6715;stroke-linecap:round;stroke-linejoin:round;stroke-miterlimit:10;" d="
			M530.033,215.875c0,0,16.685,32.159,21.623,31.011c4.937-1.149,10.598-24.283,10.598-24.283"/>
		
			<polyline style="fill:none;stroke:#122A50;stroke-width:0.6715;stroke-linecap:round;stroke-linejoin:round;stroke-miterlimit:10;" points="
			547.405,191.038 546.143,219.476 540.047,210.707 		"/>
		
			<path style="fill:none;stroke:#122A50;stroke-width:0.6715;stroke-linecap:round;stroke-linejoin:round;stroke-miterlimit:10;" d="
			M527.334,260.958c13.116-3.517,26.233-7.034,39.349-10.551"/>
		
			<path style="fill:none;stroke:#122A50;stroke-width:0.6715;stroke-linecap:round;stroke-linejoin:round;stroke-miterlimit:10;" d="
			M531.352,289.37c3.295-7.863,6.589-15.727,9.884-23.59"/>
		
			<path style="fill:none;stroke:#122A50;stroke-width:0.6715;stroke-linecap:round;stroke-linejoin:round;stroke-miterlimit:10;" d="
			M533.274,270.307c0.866,2.593,1.94,5.186,2.806,7.778"/>
		<path style="fill:#6CA8F7;" d="M463.857,162.067c0,0,0.706-8.82-1.007-10.104c-1.713-1.284-6.168,0-6.168,0v13.666
			L463.857,162.067z"/>
		<path style="fill:#001A2D;" d="M456.682,187.689c1.604,12.063,4.737,24.643,10.479,29.765c10.15,9.054,43.362-6.972,43.362-6.972
			l5.723-27.3l-40.261,19.065l-9.893-40.984l-9.448,2.721L456.682,187.689z"/>
		<path style="fill:#6CA8F7;" d="M457.731,157.314c0,0-8.135-1.82-8.884-0.321c-0.749,1.498,8.884,5.031,8.884,5.031V157.314z"/>
	</g>
	
		<text transform="matrix(1 0 0 1 270.8671 445.856)" style="fill:#FFFFFF; font-family:'Montserrat-ExtraBold'; font-size:22.602px; letter-spacing:1;">STEALING DATA</text>
	<g>
		<path style="fill:#001A2D;" d="M583.148,231.317c0,7.2,3.617,13.549,9.127,17.349c0.247-0.259,0.504-0.51,0.74-0.779
			c8.651-9.858,11.807-22.613,9.008-35.352c-0.154-0.699-0.324-1.397-0.503-2.095C591.161,211.766,583.148,220.597,583.148,231.317z
			"/>
		
			<ellipse transform="matrix(0.7071 -0.7071 0.7071 0.7071 14.8404 495.5915)" style="fill:#FA716F;" cx="605.652" cy="229.882" rx="21.069" ry="21.069"/>
		<g>
			<path style="fill:#FFFFFF;" d="M607.647,238.345v3.699h-3.216v-3.723c-2.273-0.315-4.474-1.257-6.094-2.588l1.717-3.459
				c1.741,1.501,4.377,2.565,6.142,2.565c1.305,0,2.127-0.484,2.127-1.379c0-2.877-8.922-1.136-8.922-7.133
				c0-2.685,1.934-4.546,5.03-5.054v-3.554h3.216v3.529c1.983,0.218,3.869,0.895,5.295,1.814l-1.668,3.505
				c-1.789-1.014-4.063-1.813-5.465-1.813c-1.064,0-1.765,0.387-1.765,1.161c0,2.805,8.923,1.209,8.923,7.302
				C612.967,236.193,610.694,237.935,607.647,238.345z"/>
		</g>
	</g>
</g>
</svg>
